<?xml version="1.0" encoding="UTF-8" standalone="no"?>
<!-- Created with Inkscape (http://www.inkscape.org/) -->

<svg
   width="40.571251mm"
   height="25.4mm"
   viewBox="0 0 40.571251 25.4"
   version="1.1"
   id="svg5"
   inkscape:version="1.1 (c4e8f9ed74, 2021-05-24)"
   sodipodi:docname="logo2.svg"
   inkscape:export-filename="/home/jonasl/code/ain/logo2.png"
   inkscape:export-xdpi="200"
   inkscape:export-ydpi="200"
   xmlns:inkscape="http://www.inkscape.org/namespaces/inkscape"
   xmlns:sodipodi="http://sodipodi.sourceforge.net/DTD/sodipodi-0.dtd"
   xmlns="http://www.w3.org/2000/svg"
   xmlns:svg="http://www.w3.org/2000/svg">
  <sodipodi:namedview
     id="namedview7"
     pagecolor="#ffffff"
     bordercolor="#666666"
     borderopacity="1.0"
     inkscape:pageshadow="2"
     inkscape:pageopacity="0.0"
     inkscape:pagecheckerboard="true"
     inkscape:document-units="mm"
     showgrid="false"
     fit-margin-top="0"
     fit-margin-left="0"
     fit-margin-right="0"
     fit-margin-bottom="0"
     inkscape:zoom="4.359103"
     inkscape:cx="90.729675"
     inkscape:cy="30.510864"
     inkscape:window-width="1916"
     inkscape:window-height="1037"
     inkscape:window-x="0"
     inkscape:window-y="0"
     inkscape:window-maximized="1"
     inkscape:current-layer="layer1" />
  <defs
     id="defs2">
    <rect
       x="53.799229"
       y="457.41257"
       width="400.4299"
       height="209.44847"
       id="rect3861" />
  </defs>
  <g
     inkscape:label="Layer 1"
     inkscape:groupmode="layer"
     id="layer1"
     transform="translate(-15.097873,-124.90972)">
    <path
       d="m 26.223073,124.90972 q 0.381,0.0254 1.0414,0.2286 l 0.6604,0.4318 q -0.1016,0 0.6096,-0.2794 l 0.8636,-0.254 q -0.0762,0.0254 0.635,0.1524 l 0.7112,0.0762 q 0.2286,-0.0254 0.762,0.1778 1.2446,0.508 1.2446,1.6764 0,0.5842 -0.7366,1.5748 0.2794,0.127 0.7874,-0.4064 0.5334,-0.5588 0.5842,-0.8636 -0.0508,-0.3556 -0.0508,-0.9906 0.0762,-0.254 0.3302,-0.2032 0.3048,0.0762 0.3048,0.4318 0,0.762 -0.762,1.6764 -0.1016,0.1016 -0.127,0.1778 0.0508,0.0508 0.1524,0.0508 0.254,0 0.5842,-0.254 0.3556,-0.254 0.4572,-0.508 0,-0.3048 0.0762,-0.889 0.2794,-0.3048 0.2794,-0.3556 0.381,0.1524 0.381,0.508 0,0.6858 -1.0922,1.4478 v 0.0508 l 0.1016,0.0508 h 0.0254 v -0.0254 q 0.7366,-0.4826 0.9398,-0.4572 0.4572,-0.2032 0.889,-0.2032 0.4318,0 0.8128,0.254 0.1016,0.0508 0.3302,0.2794 0,0.0762 -0.0508,0.2032 -0.0508,0.127 -0.0508,0.1524 l -0.0254,-0.0508 q -0.8128,-0.4064 -0.8128,-0.635 h -0.0254 q -0.1524,0.2286 -0.5334,0.5588 h -0.0254 q -0.3302,-0.2286 -0.8128,-0.2286 0.381,0.1778 0.8636,0.635 0.0508,0.2032 -0.0254,0.3556 -0.2032,0.1524 -0.6096,0.4572 -0.1524,0.3302 -0.635,0.762 -0.0762,0.0508 -0.2032,-0.0254 -0.127,-0.1016 -0.1778,-0.1016 -0.0254,0.2032 0,1.4732 h 0.0254 q 0.2286,-0.4064 0.7112,-1.27 0.0254,-0.127 1.143,-1.1176 0.508,-0.4318 0.635,-0.4318 l 0.5588,-0.2032 q 0.4572,-0.0508 0.4572,0.254 0,0.254 -1.143,0.508 -0.8636,0.2032 -1.2954,1.1684 -0.127,0.127 -0.2286,0.3048 -0.3556,0.4064 -0.3556,0.9652 0.0508,0.0508 0.1016,0.0508 0.2794,-0.9906 2.0574,-1.8288 0.762,-0.3302 1.2446,-0.3302 0.508,0 0.6096,0.4318 0.0762,0.4826 -0.7112,0.4826 -0.4826,0 -0.762,-0.127 0,-0.0254 -0.0254,-0.0254 h -0.0254 q -1.4478,0.4318 -1.4478,0.7112 -0.1778,0.0508 -0.381,0.2286 -0.2032,0.1778 -0.2032,0.3556 0,0.0762 0.0254,0.127 v 0.0508 q -0.6858,0.8382 -0.7112,0.889 v 0.0508 q 0.127,0.127 0.254,0.0508 1.4478,-1.6256 1.9812,-1.6256 0.4318,-0.2032 1.016,-0.2032 0.8128,0 1.7018,0.635 0.0508,-0.1016 0.0508,-0.1778 0,-0.1524 -0.4826,-0.4318 -0.2286,-0.127 -0.2032,-0.2794 0.0254,-0.1016 0.1016,-0.1016 0.1778,0 0.6604,0.4572 0.4064,0.381 0.5842,0.6096 l 0.127,0.3556 0.1778,0.254 -0.2032,0.4572 0.0762,0.4572 q 0.0762,0.6858 0.2032,0.6858 v 0.0254 q -0.8636,1.5494 -2.1082,1.397 l -0.5842,-0.2794 q -0.0762,0 -0.1778,0.1016 -0.1016,0.0762 -0.127,0.0762 0.0254,0 0.0508,0.0254 0.3302,0.5842 0.7874,0.5588 0.381,-0.0254 1.0414,-0.127 0.254,-0.3302 0.889,-0.6858 0.381,-0.0254 0.5334,0.5334 0.127,0.4318 0.0762,0.8382 l -0.1524,0.2794 q -0.2032,0.2286 -0.4318,0.2032 -0.1016,0 -0.4826,-0.254 -0.381,-0.254 -0.5334,-0.254 -1.6002,0 -1.6002,0.6096 0,0.254 0.1778,0.254 0.0508,0 0.2794,-0.1524 0.254,-0.1524 0.3302,-0.1524 0.254,-0.0508 0.508,-0.0508 0.6096,0 1.0922,0.4064 0.508,0.4064 0.5842,1.016 0.0508,0.2794 -0.1524,1.0414 -0.1016,0.3556 -1.0414,1.5748 0,0.1778 -0.2032,0.508 -0.0762,0.0508 -0.2286,-0.0762 -0.127,-0.127 -0.1778,-0.127 l -0.4572,0.127 q -1.9558,0.0508 -3.0734,-1.5494 -0.127,-0.2032 -0.4064,-0.4064 h -0.0762 q 0,0.1016 0.254,0.508 0.254,0.381 0.254,0.508 0,0.1778 -0.127,0.1778 -0.0508,0 -0.127,-0.0254 -0.1524,-0.0254 -0.1524,-0.2032 0.1778,0.1016 0.2286,0.127 0.0508,0.0762 -0.0762,0.1016 -0.127,0.0508 -0.4064,0 l 0.0762,-0.508 q -0.3302,-0.9398 -0.3302,-0.8636 0,-0.1524 0.0762,-0.2794 0.0508,-0.127 -0.0762,-0.1524 -0.1778,-0.0254 -0.2286,0.6858 -0.0254,0.7112 0.0762,0.8636 0.2032,0.508 0.381,0.7112 0.2794,0.2286 0.635,0.6858 0.0254,0.0762 0.0254,0.1524 -0.4826,0.1016 -0.8128,0.508 -0.3302,0.4064 -0.3048,0.8636 0.0254,0.3048 0.3048,0.3302 0.9144,0.1016 1.0414,0.8382 l 0.1524,0.4572 q -0.0254,1.3716 -1.9558,2.032 l -0.5842,0.0762 -0.4826,0.1778 h -0.762 q -0.381,0.127 -0.9652,0.127 -0.9906,-0.1016 -1.7526,-0.6858 -0.889,-0.6858 -0.889,-1.6002 0,-0.5842 0.2794,-0.5842 0.2286,0 0.381,0.3556 0.0254,0.1016 0.1016,0.127 0.1016,0 0.1524,-0.127 0.0254,-0.127 -0.0254,-0.2032 l -0.1524,-0.2286 q -0.0508,-0.1778 0.1778,-0.381 0.2286,-0.2286 0.381,-0.2286 h 0.8382 q 0,-0.381 -0.762,-0.381 -0.6604,0 -1.143,0.508 l -0.3302,0.4064 q -0.1524,0.1524 -0.254,0.1524 -0.0254,-0.0254 -0.1778,-0.0762 -0.3302,0.6604 -0.4826,0.635 l -0.127,-0.127 0.5588,-1.27 q 0.1524,-0.3556 0.4826,-0.6096 l 0.4826,-0.2286 q 0.3048,-0.1778 0.2794,-0.2286 -0.1778,-0.0254 -0.3556,-0.0254 -0.762,0 -1.2192,0.6096 l -0.127,0.8636 -0.381,0.762 q -1.2954,1.905 -4.1656,1.905 -0.508,0 -1.0414,-0.0762 l -1.1176,-0.4318 q -0.0254,0 -0.3556,-0.2286 -0.3302,-0.2286 -0.4318,-0.1778 -0.0508,0.0254 -0.0762,0.0254 0.3556,0.6858 1.9812,1.0414 l 0.5334,0.0762 q 0.0508,0 0.254,0.127 0.2032,0.1524 0.2794,0.1524 0.1016,0 0.4064,-0.254 0.0762,-0.0762 0.254,-0.0762 0.2286,0 0.2286,0.1016 -0.0254,0.0508 -0.0508,0.1524 0.0762,0.0508 0.254,0 0.1778,-0.0508 0.254,-0.0508 0.0254,-0.3302 1.143,-0.4064 0.1016,-0.0762 0.3302,-0.2032 0.1016,-0.0254 0.1778,-0.0254 0.0508,0 0.0508,0.0508 0,0.0762 -0.0254,0.1778 -0.0508,0.127 0.1016,0.381 0.1778,0.2794 0.127,0.381 -0.0508,0 -0.0762,0.0254 -0.0508,0.0254 -0.5334,-0.1524 -0.4572,-0.1778 -0.5842,-0.1778 -0.0762,0 -0.2032,0.0508 l -0.1016,0.0762 q -0.0254,0.1016 0.1524,0.127 2.0066,0.3556 1.9304,1.7018 -0.0254,0.635 -0.635,0.635 -0.5334,0 -0.5334,-0.4826 0,-0.127 0.1778,-0.3302 0.2032,-0.2032 0.2032,-0.3048 0,-0.2032 -0.254,-0.381 -0.4826,-0.4572 -1.4224,-0.6096 -0.5842,-0.0254 -1.6256,-0.127 -2.0574,-0.2032 -3.937,-2.6924 -0.1016,-0.254 -0.4064,-0.7366 -0.0508,-0.0254 -0.127,-0.0762 h -0.0254 q 0,0.1778 0.2794,0.7366 0.9906,1.9812 3.0988,2.8448 0.2794,0.1016 1.524,0.3048 1.651,0.2794 1.651,0.9652 0,0.0508 -0.0508,0.1524 l -0.0762,0.0508 q -0.127,0.1016 -0.2032,0.1016 -0.1524,0 -0.6096,-0.6096 l -0.508,-0.3302 q -0.0762,-0.0508 -0.9144,-0.0762 -0.254,-0.0254 -0.7366,-0.1778 -1.2954,-0.4318 -2.3876,-1.524 -1.2446,-1.2446 -1.2446,-2.4638 -0.1524,-0.1016 -0.2032,-1.0668 l -0.0762,-0.3048 h -0.0508 q -0.254,0.127 -0.381,0.127 -0.1778,0 -0.1778,-0.1524 -0.0254,-0.127 0.1016,-0.2286 0.0254,-0.0508 0.2032,-0.0508 0.1524,0 0.1524,0.0508 h 0.0254 q 0.1524,-0.0762 0.3556,-0.6604 0.2286,-0.6096 0.3556,-0.7366 l 0.0254,-0.0762 q -0.0254,-0.1016 -0.2286,-0.0762 -0.4572,0.0762 -0.7874,-0.4572 -0.3302,-0.5588 -0.2286,-0.9906 0.0762,-0.3556 0.6858,-0.9906 0.635,-0.6604 0.9652,-0.6604 v -0.3048 h 0.0254 q 0.254,0.2286 0.9652,0.2032 0.7112,-0.0254 0.9398,0.0254 0.8382,0.2286 1.6002,1.143 0.762,0.9144 0.889,1.778 0.0508,0.4826 -0.1524,1.2192 -0.127,0.4064 -0.0762,0.635 v 0 q 0.508,-0.4064 0.5842,-1.5748 0,-0.1524 -0.1778,-0.889 -0.4318,-1.8542 -2.3622,-2.4892 l -0.889,-0.0762 q -1.778,-0.127 -1.3716,-0.127 -0.7874,0.127 -1.6002,0.762 -0.7874,0.635 -1.0414,1.3716 -0.0508,0.1778 -0.0254,0.9144 0.0254,0.8636 0.762,0.8636 0.3048,-0.2032 0.6096,-0.2032 0.3048,0 0.3048,0.3556 0,0.5842 -0.7366,0.6604 -0.4826,0.0762 -0.9652,-0.6604 -0.4572,-0.6604 -0.4572,-1.1684 0,-1.9304 2.5146,-3.0226 l 0.4318,-0.1778 q -0.508,-0.381 -1.397,-1.3716 -0.5334,-0.8636 -0.5334,-2.1844 0,-2.4892 1.4224,-3.7592 l 0.1778,-0.1016 q 0.5842,-0.4318 1.9812,-1.0668 l 0.7112,-0.0254 0.3048,-0.1016 0.4572,0.1016 0.7874,0.0254 q 0.8636,0.2286 1.2446,0.381 0.1778,0.127 0.635,0.2794 0.635,0.0254 0.762,-0.254 0.0508,-0.127 -0.381,-0.2286 -0.7366,-0.1524 -1.4224,-0.5842 l -0.508,-0.4318 q -0.127,0.0508 -0.4318,0.0508 -0.254,-0.127 -0.9398,-0.3048 -0.254,0 -0.254,-0.1778 0,-0.1524 0.254,-0.1524 0.4826,-0.1778 0.762,-0.1778 0.1524,0 0.2794,0.0508 0.9906,1.27 1.8796,1.27 v -0.0508 h -0.0254 q -1.2446,-0.9144 -1.2446,-1.9558 0,-0.3302 0.254,-0.4572 0.2286,-0.0762 0.3556,0.1778 0,1.4986 0.9144,2.1082 v -0.0254 h 0.0254 q -0.4318,-1.016 -0.4318,-1.2954 0.2032,-1.8034 1.7018,-1.8034 0.2794,-0.0762 0.8382,-0.3556 z m 0,0.3556 v 0.0254 q -0.0254,0.0254 -0.0762,0.0508 v 0.0508 l 0.4826,0.3048 q 0.3556,0.381 0.3556,0.762 0,0.3048 -0.254,0.6096 -0.254,0.2794 -0.5588,0.2794 -0.6858,0 -0.6858,-0.5334 0,-0.2286 0.254,-0.2794 0.1778,-0.1016 0.4064,0.1778 l 0.2286,0.2794 q 0.254,-0.3048 0.254,-0.5842 0,-0.8128 -1.143,-0.8128 -1.016,0 -1.3462,0.8636 v 0.254 q -0.0254,0.0254 -0.0254,0.3556 -0.0508,1.8542 1.905,2.0574 l 0.6604,-0.1016 0.2032,-0.127 h -0.0254 q -0.0254,0 -0.5588,-0.0508 -0.9398,-0.0762 -1.524,-0.6604 -0.2794,-0.3048 -0.254,-0.4826 0,-0.0508 0.0762,-0.0762 l 0.4318,0.381 q 0.4572,0.381 0.6858,0.381 0.1524,0 0.4318,-0.2794 0,0.127 0.1016,0.381 0.127,0.2286 0.2286,0.2286 0.127,0 0.2286,-0.254 0.1016,-0.2794 0.1016,-0.2794 l 0.2032,0.1524 q 0.1524,0.1524 0.3556,0.1524 l 0.4318,-0.1016 0.762,-0.4318 0.5334,0.254 q 0.1016,-0.2794 -0.3048,-0.6096 l -0.4572,-0.3556 h -0.0508 q -0.7366,0.4572 -0.8382,0.4826 -0.4572,0.2286 -0.9398,0.2286 -0.127,0 -0.3048,-0.1016 -0.1524,-0.1016 -0.2032,-0.1016 0.2032,0.0508 -0.5334,0.1016 l -0.1778,-0.0508 0.1016,-0.1016 v -0.0762 q -0.635,-0.4826 -0.635,-0.889 0,-0.4318 0.3556,-0.508 0.127,-0.0254 0.1524,0.1778 v 0.381 q -0.0254,0.254 0.0254,0.3302 0.3556,0.5842 1.0922,0.4826 l 1.143,-0.1524 q 0.2032,-0.254 0.7366,-0.5334 0.0762,0 0.6604,0.3556 0.6858,0.4064 0.762,0.4318 0.0762,0.0254 0.2286,0.0254 0.381,0 0.7366,-0.1778 0.4572,-0.2032 0.4572,-0.5588 0,-0.0254 -0.1016,-0.2794 -0.0762,-0.1778 0,-0.254 0.0762,-0.127 0.3048,-0.1016 0.3048,0.1016 0.3048,0.3302 0,0.0508 -0.635,1.016 l -0.0254,0.127 q 0.1778,0.2794 0.3048,0.2794 0.0508,0 0.1778,-0.1016 0.1524,-0.127 0.2032,-0.127 l -0.3048,-0.2794 q 0.127,-0.1524 0.381,-0.127 0.2794,0.0508 0.2794,0.254 0.0254,0.1778 -0.3302,0.508 -0.3302,0.3302 -0.4826,0.3302 v 0.0508 q 0.0762,0.0254 0.1778,0.0254 0.4064,0 0.762,-0.4826 0.381,-0.4826 0.381,-0.9398 0.0254,-0.7112 -0.5334,-1.1684 l -1.2446,-0.5842 h -0.0508 q -0.381,0.1778 -0.762,0.1778 0,0.0508 -0.2032,0.4318 -0.1778,0.3556 -0.127,0.508 l 0.254,0.2032 q 0.0762,0 0.2794,-0.1016 0.2032,-0.127 0.3048,-0.127 0.2794,0 0.2794,0.254 0,0.4572 -0.4826,0.5334 -0.3302,0.0762 -0.6858,-0.127 -0.3302,-0.2286 -0.3556,-0.5588 -0.0254,-0.2032 0.2032,-0.635 0.254,-0.4318 0.4572,-0.4318 -0.0254,-0.2032 -0.3556,-0.2032 -0.9652,0 -0.9652,0.5334 0,0.127 0.2032,0.3302 0.2032,0.1778 0.2032,0.2286 -0.0508,0.0762 -0.1016,0.1016 -0.0254,0.0254 -0.0762,0.0254 -0.0762,0 -0.1778,-0.0508 l -0.2794,-0.127 q -0.3556,0.127 -0.8382,0.1524 -0.127,-0.0762 -0.0508,-0.3048 0.127,-0.2794 0.127,-0.3302 -0.0254,-0.6858 -1.2954,-0.6858 z m 2.0574,2.286 q 0.0762,0 0.127,0.0762 0.0254,0.0762 -0.0762,0.1016 -0.0762,0.0508 -0.0762,-0.0508 0,-0.0762 0.0254,-0.127 z m -0.635,0.3302 q 0.127,0.1016 0.127,0.1778 0,0.0508 -0.0508,0.1016 -0.0254,0.0254 -0.0762,0.0254 -0.2286,0 -0.2286,-0.1778 z m 2.9718,0 q -1.2954,0.1016 -1.2192,0.4318 0.0508,0.2794 0.6604,0.254 0.4826,-0.0254 0.8128,-0.127 l 0.2032,-0.2032 q -0.1778,-0.1016 -0.4572,-0.3556 z m -0.508,0.254 q 0.1016,0.0508 0.127,0.1016 0.0762,0.1016 -0.0254,0.127 -0.1016,0.0762 -0.127,-0.0508 0,-0.1016 0.0254,-0.1778 z m -1.5748,0.2032 v 0.0254 q -0.3556,0.1778 -0.4064,0.2032 0.0508,0.0254 0.762,0.0254 -0.0508,-0.1016 -0.3556,-0.254 z m -0.762,0.2794 -0.7112,0.3556 q 0.0254,0.0508 0.1778,0.0508 0.3302,0 0.8128,-0.3302 z m 1.3208,0.0762 q -0.0254,0.0254 -0.0254,0.0762 v 0.0508 q 0.0762,0 0.1524,-0.0508 h 0.0508 v -0.0508 h -0.127 z m 4.191,0.1524 v 0.0254 q -0.1524,0.0762 -0.2032,0.1016 -0.0762,0.0762 0.254,0.127 0.381,0.0254 0.5588,-0.1016 l 0.0254,-0.0254 q -0.0762,-0.127 -0.635,-0.127 z m 0.9652,0 v 0.0254 l -0.0762,0.0762 v 0.0254 q 0.0762,0.0508 0.508,0.1016 0.3048,0.0254 0.3048,0.4318 h 0.0254 q 0.1524,-0.127 0.127,-0.3556 0,-0.1778 -0.2286,-0.254 z m -5.9182,0.127 q -0.6858,0.3556 -0.6858,0.4318 0,0.0762 0.0254,0.127 l 0.127,0.127 q 0.1524,-0.4572 0.7112,-0.4572 0.1524,0 0.4826,0.0762 0.3556,0.0508 0.5334,0.0508 0.2286,0 0.6604,-0.0762 0.4572,-0.1016 0.6858,-0.1016 0.0254,0 0.0508,-0.0508 -0.1778,-0.0254 -1.7526,-0.0254 z m 3.2512,0 q -0.4826,0.2286 -0.508,0.1778 h 0.0254 l 0.2794,0.0762 q 0.254,-0.1016 0.254,-0.1524 -0.0254,-0.0762 -0.0508,-0.1016 z m 1.016,0 v 0.1778 h 0.0254 v -0.0254 l 0.1016,-0.0508 q -0.0508,-0.0508 -0.127,-0.1016 z m -11.811,0.2286 v 0.0254 q -0.7366,0.3556 -0.762,0.4318 h 1.0414 q 1.016,0 1.8288,0.8382 0.8128,0.8382 0.8128,1.8796 0,1.143 -0.9144,1.8034 -0.9144,0.635 -2.0828,0.508 -0.4826,-0.0508 -0.8636,-0.6096 -0.381,-0.5842 -0.3302,-1.0668 0.0254,-0.2794 0.3048,-0.635 0.3048,-0.3556 0.5842,-0.4572 0.254,-0.0508 0.508,0.1778 0.254,0.2286 0.2286,0.4826 -0.0254,0.1016 -0.5588,0.4318 -0.5334,0.3302 -0.508,0.5588 0.0762,0.8382 1.2192,0.8382 1.2192,0 1.7526,-0.9906 0.254,-0.4826 0.254,-0.9906 0,-0.889 -0.6096,-1.6002 -0.6096,-0.7112 -1.4986,-0.7874 -2.032,-0.1524 -3.683,1.2446 -0.381,0.3302 -0.5334,0.508 -0.254,0.3048 -0.3302,0.635 -0.1016,0.4826 0.1778,0.6858 0.2794,0.2032 0.3302,0.1524 -0.2032,0.3302 -0.508,1.0922 -0.0508,0.7366 0.4318,1.4986 0.9398,1.5494 3.937,1.5494 0.3556,-0.0254 1.016,-0.1778 0.6858,-0.1524 0.635,-0.1524 0.7366,-0.3556 2.1082,-1.27 l 0.7112,-0.8128 0.381,-0.762 0.1016,-0.4318 0.381,-0.4826 q 0.127,-0.1524 0.5334,-1.0668 0.4318,-0.9144 0.4064,-1.016 v -0.0762 q -0.6604,-0.508 -0.6858,-0.5588 -0.0762,0 -0.0762,0.0762 0.2794,0.5334 0.2794,0.7112 0,0.2032 -0.2032,0.127 -0.3302,-0.4826 -0.9652,-1.0922 -1.2446,-0.5334 -1.7018,-0.5334 -0.1016,0 -0.3556,0.127 l 0.127,0.1016 h 0.0254 v -0.0254 q 0.1524,0 0.3048,0.1524 0.1524,0.1524 0.2032,0.1778 1.4986,0.4318 1.7272,0.762 0.3556,0.6096 0.2032,0.762 -0.0508,0.0508 -0.127,0.0508 -0.0508,0 -0.508,-0.5588 -0.6604,-0.7874 -1.143,-0.7874 0.0762,0.254 1.3208,1.6256 l -0.0508,0.0254 q -0.127,0.2032 -0.2794,0.2032 -0.2032,0 -0.889,-0.8382 l -0.6858,-0.8636 q 0.1524,0.254 0.4318,0.8128 0.0508,0.1524 0.2794,1.0668 l 0.1778,0.4064 q 0.0762,0.5842 -0.4826,1.0922 -0.4064,0.3556 -0.5842,0.3556 -0.1524,-0.0254 -0.1524,-0.1778 0,-0.127 0.4318,-0.5588 0.4318,-0.4572 0.4318,-0.4826 0,-0.0508 -0.127,-0.2032 -0.1016,-0.1778 -0.1016,-0.3302 0,-2.4638 -3.3274,-3.5814 z m 6.2484,0.0254 q -0.1524,0.2032 -0.3048,0.127 -0.2286,-0.1016 -0.3302,-0.0254 l -0.6858,0.635 q -0.0508,0.0508 -0.127,0.1524 l 0.0508,0.0254 q 0.0254,0.0254 0.127,0.0254 0.3556,0 0.8382,-0.2032 0.5842,-0.254 0.5842,-0.5588 0,-0.1016 -0.1524,-0.1778 z m -1.778,0.1016 q -0.381,0.2286 -0.508,0.4064 l -0.0254,0.0254 q 0.1524,0.1524 0.3048,0.1524 0.508,-0.2794 0.508,-0.4572 0,-0.1016 -0.2794,-0.127 z m 8.382,0.0508 v 0.0254 q -0.0254,0.0508 -0.0508,0.0508 v 0.0254 q -0.0508,0 -0.1016,0.0254 l -0.0762,0.0762 -0.0762,0.1524 v 1.7526 q 0,0.0508 0.0508,0.254 0.0254,0.1524 0,0.254 -0.1016,1.1176 -0.1016,4.1148 v 4.826 q 0.0254,0.3302 0.1016,0.9144 -0.0762,1.3716 -0.1016,2.2352 0,0.1778 0.3556,0.4318 h 0.0762 q 0.0254,-0.0508 0.0254,-0.127 0,-0.0762 -0.0508,-0.1524 -0.0508,-0.1016 -0.1016,-0.254 v -0.762 q 0,-1.1176 0.0254,-2.3114 0.0254,-1.1176 0,-3.1496 -0.0508,-2.286 0.0254,-5.5118 -0.0254,-0.3556 -0.0508,-0.9906 l 0.0508,-0.762 q 0.0254,-0.3556 0,-0.635 0.127,-0.2032 0.9906,-0.2032 -0.0762,-0.2794 -0.9906,-0.2794 z m -14.4018,0.1524 v 0.0508 q -2.032,0.8128 -2.032,1.5494 h 0.0508 v -0.0254 q 1.1684,-1.1684 2.0574,-1.1938 l 0.1778,-0.127 z m 8.9408,0 v 0.0508 q -0.1778,0.127 -0.1778,0.3302 0.3302,-0.0762 0.381,-0.0508 0.0508,0.0762 0.0508,0.127 0,0.127 -0.1524,0.2794 l -0.2032,0.254 q -0.6604,1.397 -2.0574,4.191 l -1.5494,2.286 q -0.3048,0.3048 -0.635,0.9906 l 0.0508,0.2794 h 0.0508 v -0.0254 q 0.3048,-0.4826 0.9652,-1.4732 l 0.3048,-0.2794 0.9652,-1.5494 q 0.5842,-1.1684 1.8288,-3.5052 l 0.127,-0.4064 q 0.0508,-0.0254 0.1524,-0.127 0,-0.1524 0.381,-0.635 0.381,-0.508 0.3556,-0.5588 -0.0508,-0.1524 -0.8382,-0.1778 z m 2.2606,0 -0.1016,0.1016 v 0.0254 q 0.3556,0 0.508,0.1016 l 0.4064,0.381 v -0.0254 q 0.0508,-0.1016 0.0508,-0.2032 0,-0.381 -0.8636,-0.381 z m -0.381,0.127 q -1.2446,0.9652 -1.7526,2.667 -0.7366,2.5146 -0.9906,2.9972 -0.1016,0.2286 -0.127,0.3048 -0.0508,0.3048 0.0762,0.381 0.1524,0.1016 0.8128,-0.3048 l 0.6858,-0.4064 0.381,-0.254 q 1.9558,-0.7874 2.2352,-1.4732 0.1016,-0.2286 0.1016,-0.8128 0,-0.508 -0.0508,-1.2192 l -0.1016,-0.381 0.1016,-0.4826 -0.1778,-0.4318 q -0.0254,0 -0.0508,-0.0254 -0.127,0.3048 0.0508,1.9812 0.1016,0.9652 -0.1524,1.397 -0.1524,0.2032 -1.5494,0.889 -0.508,0.254 -1.016,0.6096 0,0 -0.762,0.3556 -0.0762,0.0254 -0.1524,-0.1016 0.6096,-2.3114 1.1938,-3.8354 0.4318,-0.762 0.9906,-1.2954 0.1778,-0.1016 0.4318,-0.4318 v -0.0762 q -0.0508,0 -0.1778,-0.0508 z m -2.7686,0.2286 v 0 l -0.4826,0.4826 q 0.381,0.2794 0.635,0.2794 0.381,0 0.381,-0.3556 0,-0.3302 -0.5334,-0.4064 z m 6.731,0.1016 v 0.254 h 0.0254 v -0.0254 q 0.0762,-0.0508 0.1016,-0.0762 z m -3.5306,0.0508 v 0 l -0.4318,0.5588 q -0.0254,0.1016 0.1016,0.3048 0.127,0.2032 0.127,0.2794 0,0.3302 -0.254,0.3302 -0.1016,-0.0508 -0.4318,-0.4826 -0.0254,0 -0.0508,-0.0254 -0.3048,0.2286 -0.6604,1.0922 -0.3556,0.8382 -0.381,1.2446 0.1778,0.0762 0.2794,0.6096 0,0.0762 -0.1778,0.3302 -0.1778,0.254 -0.1524,0.3302 l 0.0508,0.0508 q 0.1016,0.0508 0.4572,-0.381 0.3302,-0.3302 0.3302,-0.762 0,-0.2032 -0.0762,-0.6096 -0.0762,-0.4064 -0.0762,-0.6096 0,-0.5842 0.4318,-0.635 0.635,-0.0762 0.9144,0.4572 l 0.0762,0.0254 -0.0254,0.0254 q -0.0762,0.127 -0.0762,0.254 0,0.1778 0.1016,0.381 l 0.127,0.1524 q 0.2286,0.1524 0.2286,-0.4064 0,-0.4318 -0.3048,-1.0668 l -0.0508,-0.2032 q 0,-0.127 0.127,-0.4318 0.127,-0.3302 0.127,-0.4826 0,-0.254 -0.3302,-0.3302 z m -6.858,0.4318 q 0,0.0254 -0.0254,0.0762 0.0254,0.0762 0.127,0.1778 v -0.0508 h 0.0254 z m -4.4704,0.127 q 0.381,0.0254 0.2794,0.254 l -0.0254,0.0254 -0.381,0.127 q -0.4064,0.254 -0.9144,0.762 -0.1524,0.1524 -0.2286,0.5334 -0.0762,0.3556 -0.1778,0.4826 -0.0762,0.1016 -0.127,0.1016 -0.0762,0 -0.127,-0.0508 -0.0762,-0.0508 0.0254,-0.4064 0.254,-1.1176 1.6764,-1.8034 z m 0.762,0.254 q 1.1176,0 1.2954,0.0508 0.381,0.127 0.7366,0.635 0.381,0.4826 0.3556,0.8636 -0.0254,0.3048 -0.3556,0.7366 -0.3302,0.4064 -0.635,0.4318 -0.127,0 -0.254,-0.1524 0.6604,-0.4826 0.762,-0.9652 0.127,-0.6096 -0.3556,-0.9652 -0.4572,-0.381 -1.0922,-0.381 -1.1684,0 -1.8796,1.2954 -0.0762,0.1524 -0.0762,0.9398 0,1.9558 2.032,2.4638 l 0.9398,0.2032 0.4064,-0.127 q 0.0254,-0.0254 0.0254,-0.0762 0,-0.0762 -0.0508,-0.2032 -0.0508,-0.1524 -0.0508,-0.1778 0,-0.127 0.3048,-0.127 l 0.3048,0.1778 q 0,0.2794 0.1016,0.2794 0.0762,-0.0254 0.1778,-0.127 l 0.0762,-0.0508 q 0.1778,-0.2794 0.7874,-0.5334 0.7112,-0.3048 0.889,-0.4572 0.4064,-0.3048 0.9652,-1.0668 0.5842,-0.7874 0.9144,-1.0922 l 0.0508,-0.0254 h 0.0762 q 0.1016,0 0.127,-0.0254 -0.0508,0.3048 -0.508,0.9144 -0.635,0.8128 -0.6604,0.889 l -0.1016,0.1778 v 0.0508 h 0.0254 v -0.0508 q 0.2794,-0.1524 0.4064,-0.1524 v 0.0762 q -1.27,1.9812 -3.8862,2.667 -0.3302,0.127 -0.9652,0.254 -0.4826,0 -1.3716,-0.254 -0.8636,-0.254 -1.2192,-0.508 -0.2286,-0.1524 -0.508,-0.6096 -0.2794,-0.4572 -0.1778,-0.635 0.1016,-0.1524 0.2032,-0.1524 0.0762,0 0.2286,0.127 l 0.1524,0.381 q 0.635,1.0668 1.3208,1.0668 0.254,0 0.635,-0.254 l 0.0508,0.0254 0.381,0.2286 q 0.3302,0.127 0.6858,0.127 0.3556,0 0.7366,-0.127 -0.1778,0 0.9144,-0.3048 0.1016,-0.0254 0.9906,-0.5588 0.1778,-0.0762 1.016,-0.9144 0.3302,-0.3302 0.3556,-0.4318 l -0.0508,0.0254 -1.4478,1.1176 q -0.381,0.2794 -1.6256,0.5842 -0.8636,0.2286 -1.1684,0.1778 l -0.6096,-0.254 -0.508,-0.0762 -0.889,-0.4318 q -0.635,-0.5842 -0.7874,-0.9398 -0.0254,-0.1778 -0.1016,-0.6858 l -0.1016,-0.8382 q 0.0508,-0.4826 0.4318,-1.0414 0.381,-0.5588 0.8128,-0.762 0.2794,-0.2794 0.508,-0.2794 z m 15.5194,0.7112 h 0.2286 q 0,0.0508 0.0254,0.1016 -0.1778,0 -0.254,-0.1016 z m -0.1524,0.254 0.1016,0.0762 -0.1524,0.127 z m 1.651,0 v 0 q -0.0254,0.0508 -0.0254,0.127 0,0.0762 0.0508,0.1778 0.0508,0.1016 0.0508,0.1524 0,0.1524 -0.2286,0.1524 -0.127,0 -0.2286,-0.1778 -0.0762,-0.2032 -0.127,-0.2032 -0.3302,-0.0254 -0.4064,0.2032 -0.0762,0.2286 0.0508,0.4572 l 0.2032,0.1778 q 0.4572,-0.3048 0.5588,0.0762 0.1016,0.3556 -0.4318,0.381 l -0.381,0.0508 q -0.2032,0.0762 -0.5842,0.4572 -0.381,0.381 -0.381,0.5588 0,0.0508 0.0508,0.0762 0.1016,0.1016 0.2794,-0.127 0.4064,-0.5334 1.0668,-0.5334 0.0762,0 0.3302,0.1778 0.254,0.1524 0.3556,0.1016 0.1016,-0.0254 0.4064,-0.3048 0.3302,-0.3048 0.508,-0.2794 0.4318,0.0254 0.508,0.508 0.0762,0.5588 0.381,0.4572 0.0762,-0.0762 0.1524,-0.127 0.4572,-0.4064 0.4572,-0.8382 0,-0.8382 -0.9398,-1.3208 -0.7366,-0.381 -1.6764,-0.381 z m -1.8288,0.2032 h 0.127 q -0.0508,0.0254 -0.0762,0.0762 0,0.0508 -0.0254,0.0762 l -0.0254,-0.0254 h -0.0508 q -0.0254,-0.0254 -0.0254,-0.1016 0.0254,0 0.0762,-0.0254 z m -5.6896,0.0254 q 0,0.1016 0.0508,0.127 0.1016,0.0508 0.1016,-0.0254 v -0.1016 z m 8.0518,0 q 0.2286,0.0762 0.2286,0.2286 0,0.0508 -0.0508,0.1016 -0.1524,0.0508 -0.2032,-0.0762 -0.0254,-0.127 0.0254,-0.254 z m -18.2372,0.127 q 0.1778,0.0508 0.1778,0.1016 0,0.0254 -0.0254,0.0508 -0.1016,0.1524 -0.1524,0.0762 -0.0508,-0.0254 -0.0762,-0.1016 z m 18.8722,0 q 0.2032,0.0762 0.2032,0.127 0,0.0254 -0.0762,0.1524 -0.0762,0.1016 -0.0762,0.1778 -0.1778,-0.1016 -0.1778,-0.2286 0,-0.1016 0.127,-0.2286 z m -11.5824,0.127 q 0,0.0508 -0.0254,0.0762 l 0.0254,-0.0508 z m -3.7846,0.0762 q 0.127,0.0762 0.127,0.2794 0,0.508 -0.5588,1.016 -0.5334,0.508 -1.0414,0.508 -0.2286,0 -0.4318,-0.127 -0.2794,-0.127 -0.2794,-0.3302 0.254,0.0508 0.7874,0.1016 0.889,-0.0508 1.2192,-1.143 0.0762,-0.2794 0.1778,-0.2794 z m 6.6802,0.0254 q -0.0254,0.1778 -0.0254,0.3048 0,0.3302 0.254,0.3302 v 0 q 0.0254,-0.1016 0.0254,-0.2032 0,-0.2032 -0.254,-0.4318 z m 10.1346,0 q 0.0508,0.1016 0.0762,0.127 v -0.1016 q -0.0254,-0.0254 -0.0762,-0.0254 z m -0.8128,0.2286 q 0.127,0.0254 0.2032,0.2032 0.0254,0.0508 0.0254,0.1016 0,0.0762 -0.127,0.1016 -0.1778,0.0762 -0.1778,-0.127 0,-0.2032 0.0762,-0.2794 z m -3.429,0.127 v 0 q -0.0254,0.0508 -0.0254,0.127 0,0.2794 0.3302,0.2794 0.1524,0 0.2794,-0.127 h 0.0254 q -0.1778,-0.2794 -0.6096,-0.2794 z m 4.445,0.0254 z m -20.7518,0.127 0.254,0.0508 v 0.0762 q -0.1778,0.0762 -0.3302,-0.0762 0.0254,-0.0254 0.0762,-0.0508 z m 11.2776,0.3556 v 0.0254 l -0.3048,0.508 h 0.0508 q 0.0254,0.0254 0.0762,0.0254 0.2286,-0.2794 0.2286,-0.4064 0.0254,-0.0254 0.1016,-0.0254 v 0.0254 q 0.0254,0 0.0508,0.0254 h 0.0762 v -0.1016 h -0.0762 z m 4.6228,0 q -0.1016,0.127 -0.0508,0.254 0.0508,0.1524 0.1778,0.1524 0.2286,0 0.2286,-0.2032 0,-0.1524 -0.3556,-0.2032 z m -15.875,0.1778 0.2286,0.127 v 0.0254 q -0.127,0.1778 -0.2286,0.1778 -0.0762,0 -0.127,-0.0762 -0.0254,-0.0762 0.127,-0.254 z m -1.5748,0.254 q 0.1524,0.0508 0.2032,0.2286 0.0254,0.0508 0.0254,0.1016 0,0.1016 -0.1016,0.127 -0.2032,0.0508 -0.2286,-0.127 0,-0.2032 0.1016,-0.3302 z m 17.0942,0.127 -0.254,0.2286 q 0.0254,0.0508 0.6096,0.0508 -0.1524,-0.1778 -0.3556,-0.2794 z m -15.3162,0.1524 q 0.4318,0.1016 0.1524,0.254 -0.1778,0.1016 -0.2032,-0.0254 -0.0254,-0.127 0.0508,-0.2286 z m 20.4978,0.127 q -0.7366,1.1176 -1.3716,1.1176 -0.1524,0 -0.6604,-0.3302 -0.4826,-0.3556 -0.5334,-0.3302 -0.4064,0.127 -0.4064,1.4224 0,2.9972 1.1684,2.9972 l -0.3302,-0.4826 q 0.3302,-0.4826 0.381,-0.4826 -0.0254,-0.127 -0.127,-0.1016 -0.0762,0.0762 -0.0762,0.2032 -0.6096,-0.0254 -0.6096,-0.8382 0,-0.1524 0.0254,-0.254 l 0.3302,-0.3302 q 0.0508,-0.2286 -0.4572,-0.2286 v -0.1016 l 0.0762,-0.2286 q -0.0508,-0.9144 0.1778,-1.0414 0.0508,-0.0254 0.5842,0.2032 0.5334,0.2032 0.6604,0.2032 0.381,0 0.8382,-0.4064 0.4826,-0.4318 0.4572,-0.8128 0,-0.1016 -0.127,-0.1778 z m -3.7084,0.2286 q -0.7366,0.4572 -0.7366,0.8382 0,0.4572 0.4826,0.4572 0.1016,-0.0254 0.254,0.0508 0.1778,0.0508 0.254,0.0508 0.127,-0.5588 0.4826,-1.2446 l 0.0254,-0.0508 q -0.127,0.0254 -0.4572,0.0254 z m -1.8542,0.2286 q -0.0254,0.0508 -0.0254,0.127 0,0.254 0.4826,0.254 0.1016,0 0.1778,-0.0254 -0.0508,-0.2286 -0.635,-0.3556 z m -14.478,0.127 q 0.5842,0.2794 0.3556,0.2794 -0.1016,0.127 -0.2286,0.127 -0.254,0 -0.254,-0.1778 0,-0.127 0.127,-0.2286 z m 16.1798,0.0508 q 0.3302,0.0508 0.3302,0.3302 0,0.254 -0.3048,0.254 -0.2286,0.0254 -0.2286,-0.1524 0,-0.2286 0.2032,-0.4318 z m -15.5702,0.381 q 0.1524,0.0508 0.2286,0.2032 0.0762,0.2032 -0.127,0.2286 -0.1524,0.0508 -0.1524,-0.127 -0.0508,-0.2032 0.0508,-0.3048 z m 10.795,0.127 -2.159,1.2192 q -1.4986,0.6604 -1.8796,1.1176 -0.127,0.1524 -0.7874,1.9812 -1.27,3.5306 -3.4798,4.8006 -0.2286,0.127 -0.8128,0.4826 0.127,0.1016 0.3302,0.1016 1.4986,-0.635 2.6416,-2.3368 0.5842,-0.8636 1.651,-3.1242 0.1524,-0.6096 0.6604,-1.7018 0.1524,-0.2286 1.1684,-0.8128 1.016,-0.6096 1.27,-0.6096 0.381,-0.254 1.2446,-0.6604 0.0254,0 0.1016,-0.0762 0,0.0508 0.0254,0.0508 0,0.1778 0.0254,0.5588 l 0.1524,0.508 q 0.0762,0.4064 -0.0508,2.6924 0,0.0254 0.0508,0.889 0.0508,0.4318 0,0.889 l -0.0508,0.9398 0.0508,0.381 v 1.3462 q 0,0.127 -0.2032,0.3302 -0.1778,0.1778 -0.1778,0.254 0.1524,0.0508 0.2794,0.0508 0.3302,0 0.3556,-0.4572 0.0254,-0.5588 -0.0762,-2.5908 -0.0762,-0.889 0,-2.5654 0.0508,-1.8288 0.0508,-2.5654 l -0.1524,-0.7112 q 0.0508,-0.0762 0.0508,-0.1778 0,-0.1524 -0.2794,-0.2032 z m -10.0838,0.0508 q 0.3302,0.0254 0.3302,0.254 0,0.1778 -0.254,0.1778 -0.127,0 -0.1524,-0.1524 -0.0254,-0.1524 0.0762,-0.2794 z m 13.081,0 q -0.1016,0.0762 -0.1016,0.1778 0,0.1016 0.254,0.0762 0.2286,-0.0254 0.3556,-0.0508 -0.1778,-0.1778 -0.508,-0.2032 z m 1.016,0.508 q -0.1524,0.1524 -0.0762,0.5842 0.0508,0.4572 0.0762,0.635 h 0.0254 v -0.0254 q 0.254,-0.2286 0.254,-0.6858 0,-0.4064 -0.2794,-0.508 z m 4.8514,0.1524 q -0.0254,0.0254 -0.0762,0.1016 l 0.1778,0.0508 z m -5.9436,0.0508 v 0 q -0.0508,0.0762 -0.0508,0.127 0,0.2032 0.2794,0.2032 l 0.254,-0.1016 q -0.127,-0.2032 -0.4826,-0.2286 z m 1.8034,0 z m 0.3302,0.2032 0.0254,0.2286 q 0.0508,0.0254 0.1016,0.0254 v -0.0254 z m -5.8166,0.1524 v 0.0254 q -0.508,0.2032 -1.524,0.8636 v 0.0762 q 0.2286,-0.0254 0.6096,-0.0508 0.4572,0.1524 0.7874,0.6096 0.3556,0.4318 0.3556,0.889 0,0.7112 -1.1176,1.5494 -0.127,0.2286 -0.6096,0.6096 -0.254,0.1016 -0.4572,0.1016 -0.6096,0 -0.9652,-0.6858 -0.2794,-0.5842 -0.2794,-1.2446 -0.1016,0 -0.2286,0.4572 -0.127,0.4318 -0.1016,0.5588 0.0762,0.4064 0.6096,0.8382 0.5588,0.4318 0.9906,0.3556 0.7874,-0.127 1.524,-0.8382 0.762,-0.7366 0.9398,-1.5494 l 0.0508,-1.3208 q 0,-0.8128 -0.1016,-0.8636 -0.2794,-0.0762 -0.2794,0.6604 -0.0762,0.1016 -0.1016,0.127 -0.0762,0 -0.1524,-0.1524 l -0.1016,-0.127 q -0.4572,-0.2032 -0.4572,-0.3048 0.635,-0.3556 0.635,-0.4318 0,-0.0762 -0.0254,-0.1524 z m -6.1214,0.127 q -0.381,0.3556 -1.2446,0.7366 -0.8636,0.381 -1.3716,0.4064 -0.127,0.0254 -0.2794,0.1016 l 0.1016,0.1778 0.8636,0.6096 q 0.3556,0.3302 0.7366,1.0922 0.4064,0.762 0.4064,1.1938 0.0508,0 0.0762,0.0254 0.1016,-0.2794 0.3048,-0.2794 0.2032,0 0.2032,0.381 h 0.1016 l 0.3302,-0.6096 -0.1778,-0.1778 h -0.0254 q -0.1016,0.0254 -0.2286,0.0254 -0.4572,0 -0.8128,-0.508 -0.3302,-0.5334 -0.254,-0.9906 0,-0.1016 0.1778,-0.381 0.1778,-0.2794 0.1778,-0.3048 0.0508,0 0.0762,0.0254 0,-0.1016 0.0508,-0.1778 -0.1524,0 -0.508,0.1524 -0.3302,0.127 -0.4826,0.127 -0.2032,0 -0.2286,-0.1524 -0.0254,-0.1524 0.635,-0.381 0.8636,-0.3048 1.1684,-0.6096 0.0762,-0.0508 0.3302,-0.4064 -0.0508,-0.0254 -0.127,-0.0762 z m 11.938,0.127 -0.1016,0.2286 0.254,-0.1016 q -0.0254,-0.0254 -0.1524,-0.127 z m -1.9304,0.1016 v 0 q -0.3048,0.1524 -0.3048,0.3556 0,0.0508 0.1016,0.127 0.1524,0.0508 0.4826,-0.2032 0.0508,-0.0254 0.0508,-0.1016 0,-0.1524 -0.3302,-0.1778 z m 1.5748,0.1778 v 0.0508 l -0.1016,0.0762 0.1778,0.0508 q 0.0254,-0.0762 0.0762,-0.1778 z m 0.5334,0.2032 v 0.0254 l -0.3302,0.2286 q -0.2032,0.0254 -0.3556,0.0254 -0.254,0.0508 -0.254,0.2286 0,0.2032 0.254,0.508 0.254,0.2794 0.4318,0.3556 l 0.5588,0.0254 0.1524,-0.1016 q -0.1016,-0.5842 -0.2286,-0.6096 -0.127,0.3048 -0.4826,0.3048 -0.254,0 -0.254,-0.3048 0.2032,-0.1778 0.381,-0.1778 0.1016,0 0.2032,0.0508 h 0.0254 q 0.1524,-0.127 0.1524,-0.254 0,-0.1524 -0.254,-0.3048 z m -7.8232,0.3048 v 0.0508 q -0.6858,0.3556 -0.8382,0.4318 -0.3556,0.254 -0.4826,0.762 -0.0254,0.127 0.0762,0.2794 0.1016,0.1524 0.1016,0.1778 l 0.0508,0.6604 q 0.2286,0.889 1.1176,0.889 0.4064,0 0.4064,-0.1016 -0.0762,-0.1016 -0.762,-0.5334 -0.4318,-0.2794 -0.4318,-0.6604 0,-0.9652 0.5334,-0.9652 -0.0508,-0.0254 -0.1016,-0.0254 -0.127,0 -0.4572,0.2794 -0.3048,0.254 -0.3048,0.3556 h -0.0254 q 0,-0.4572 0.4318,-0.762 0.4572,-0.3302 0.9398,-0.3302 1.1684,0 1.1684,0.8128 0,0.2032 -0.1524,0.4064 -0.508,0.6096 -0.762,0.6096 -0.1016,0 -0.1778,-0.0508 -0.1016,-0.0762 0.6096,-0.6604 0.1016,-0.1524 0.1016,-0.2794 0,-0.4064 -0.5334,-0.4064 0,0.0254 0.0254,0.0508 0.1016,0.2032 0.0508,0.381 -0.0508,0.254 -0.3048,0.2286 -0.0762,0 -0.254,-0.0762 -0.1524,-0.0762 -0.2286,-0.0762 -0.254,0 -0.254,0.4064 0,0.5334 0.6096,0.7874 0.1524,0.0254 0.3048,0.0254 0.4572,0 0.8382,-0.4064 0.4064,-0.4318 0.4064,-0.889 0.0254,-1.1938 -1.7018,-1.3716 z m 5.8674,0.127 q -0.3556,0.254 -0.3556,0.381 0,0.2032 0.1524,0.2032 0.1778,0 0.5842,-0.3302 0.1524,0.508 0.9906,1.4732 0.4318,0.3556 0.7874,0.381 0.254,-0.0254 0.7874,0.1778 0.2286,0.2032 0.127,0.3556 -0.0508,0.1016 -0.3048,0.1016 -0.4064,0.0254 -0.8636,-0.2286 l -0.4826,-0.254 q -0.1524,-0.0254 -0.3556,0.1016 -0.2032,0.1016 -0.2032,0.1016 0.0762,0.4064 0.3048,0.4064 0.2286,-0.2286 0.4826,-0.2286 0.2032,0 0.2286,0.254 -0.1016,0.0762 -0.1778,0.1524 -0.0254,0 -0.2794,-0.0508 -0.1524,-0.0254 -0.1524,0.0508 0.1778,0.2286 0.635,0.508 0.0762,0 0.2286,-0.2032 0.1524,-0.2032 0.2032,-0.2032 0.1016,0 0.2032,0.1524 l 0.0254,0.2032 -0.254,0.1778 v 0.0508 q 1.1176,0.2032 1.016,0.2032 0.7874,0 1.397,-0.5334 0.635,-0.5334 0.635,-1.2954 0,-1.0922 -0.6604,-1.0922 -0.127,0 -0.2032,0.127 -0.4572,0.7366 -1.0414,0.7366 -0.1524,0 -0.2794,-0.0508 l -0.4064,-0.3302 q -0.1778,0.1016 -0.5842,0.1016 -0.635,-0.127 -1.6764,-1.4732 -0.0254,-0.0254 -0.508,-0.127 z m 4.1656,0 -0.254,0.1016 v 0.0254 q 0.4318,0.2286 1.0922,0.5588 0.2032,0.3556 0.5842,0.889 0.0508,0.0508 0.2794,0.0508 l -0.635,-1.0668 q -0.4064,-0.5334 -1.0668,-0.5588 z m -20.955,0.508 0.127,0.127 v 0.0762 h -0.1016 q -0.0254,-0.127 -0.0254,-0.2032 z m 1.0922,0.2286 q -0.5334,0.2794 -1.0922,0.635 -0.6604,0.508 -0.6096,1.0922 0.0762,0.9144 0.7874,0.9144 0.6604,0 0.9906,-0.7874 0.2286,-0.5842 0.5334,-0.5842 0.0508,0 0.127,0.0254 0.0254,0.1524 0.0762,0.1778 -0.0762,0.2794 -0.6858,0.889 -1.143,1.143 -1.143,2.1082 0,0.9652 0.762,1.9558 0.6604,0.8382 1.6002,1.397 1.143,0.6604 2.413,0.6604 0.8128,0 1.4986,-0.254 0.9652,-0.3302 0.9652,-0.9906 0.1778,-0.127 0.508,-0.5334 0.3556,-0.4318 0.3048,-0.5334 -0.0508,-0.0254 -0.3556,0.1524 -0.0508,0.0254 -0.254,0.3556 -0.2032,0.3048 -0.381,0.2794 -0.2032,-0.0254 -0.2032,-0.1778 0,-0.3556 0.4572,-0.3556 l -0.0762,-0.4318 q 0.2032,-0.0762 0.381,-0.4064 l -0.2794,-0.6858 h -0.0254 q -0.1524,0.2286 -0.7874,0.9398 -1.1684,1.27 -3.175,1.3462 l -0.7112,-0.0762 -0.4064,-0.1778 v 0.0508 l 0.254,0.3302 q 0.6858,0.4064 1.524,0.4064 0.1778,-0.0254 0.6096,-0.127 0.5334,-0.3556 1.6002,-0.6858 0.1524,0 0.381,0.1524 l 0.2032,0.1778 v 0.0508 q -0.7112,0.8128 -2.4384,0.8128 -1.8288,0 -3.2766,-1.8034 -0.9652,-1.1938 -0.8382,-2.2098 0.0762,-0.4572 0.5842,-1.0668 0.5334,-0.6096 0.9906,-0.635 0.5588,-0.381 1.0922,-0.0762 0.8636,0.5334 0.8636,1.3208 0,0.254 -0.1016,0.4572 l -0.3302,0.8128 h 0.0508 v -0.0508 q 0.762,-0.6604 0.762,-1.4732 0,-0.254 -0.127,-0.4826 -0.2032,-0.127 -0.5334,-0.4572 -0.1524,-0.2032 -0.5842,-0.5842 -0.2794,0 -0.6858,-0.254 -0.0254,-0.0762 -0.0254,-0.127 0,-0.1016 0.1016,-0.2032 0.1016,-0.1016 0.1016,-0.127 h 0.0508 q 0.9652,0.4826 1.1684,1.0922 l 0.1016,0.1778 q 0.1524,-0.1016 0.1524,-0.1778 0,0.1778 -0.2286,-0.3556 -0.4826,-1.1176 -1.778,-1.1176 -0.5588,0 -0.9906,0.3556 -0.1524,0.3556 -0.635,0.8636 -0.2794,0.1016 -0.5334,-0.4318 v -0.0508 q 0.4318,-0.889 1.2192,-0.889 0.381,-0.2286 0.8128,-0.2286 0.6604,0 1.8034,0.7366 v -0.0254 q 0.0254,-0.1524 0.0254,-0.254 0,-0.1016 -0.0508,-0.1778 -0.0508,-0.1016 -0.508,-0.3556 -0.4572,-0.2794 -0.6096,-0.3048 z m 15.9258,0 q -0.254,0.2032 -0.254,0.4064 0,0.127 0.1524,0.127 0.3048,-0.2286 0.3048,-0.3302 0,-0.1016 -0.2032,-0.2032 z m -17.6022,0.2032 q 0.1016,0.0508 0.0254,0.1524 -0.0254,0.0254 -0.0508,0.0254 -0.0762,0 -0.1016,-0.0254 v -0.0254 q 0.0254,-0.0508 0.127,-0.1016 z m 6.7056,0.1524 v 0.0254 q -0.0254,0.0762 -0.0254,0.127 0,0.2286 0.2794,0.5588 0.2794,0.3302 0.508,0.3302 0.3302,-0.254 0.3556,-0.3556 -0.1016,0.0508 -0.2286,0.0508 -0.2286,0 -0.5334,-0.3556 -0.3048,-0.3556 -0.3556,-0.381 z m -7.2136,0.254 q 0.127,0.1016 0.127,0.1524 -0.0254,0.0254 -0.1016,0.0762 -0.0254,-0.1016 -0.0254,-0.2286 z m 8.763,0.127 q -0.1524,0.1016 -0.1016,0.3048 0.0254,0.3048 0,0.381 l -0.254,0.3302 q -1.8034,4.0386 -3.8354,4.0894 -0.7874,0.0254 -0.7874,-0.381 0,0.0762 0.6096,-1.0414 0.0254,-0.2286 -0.1016,-0.2286 -0.889,1.0668 -0.762,1.4732 0.127,0.4064 1.0668,0.4064 2.159,0 3.81,-3.5814 0.5842,-1.2446 0.5842,-1.4478 0,-0.2286 -0.2286,-0.3048 z m 9.8552,0.0254 v 0.0254 q -0.4318,0.2032 -0.3556,0.3048 l 0.1778,0.2032 h 0.0508 v -0.0254 q 0.254,-0.1524 0.254,-0.2794 0,-0.127 -0.127,-0.2286 z m 3.9624,0.127 0.127,0.127 q 0.0508,0.127 0.0254,0.127 l -0.0254,0.0254 q 0.0254,0.1016 0.0254,0.1778 0,0.0762 -0.0254,0.1524 -0.127,-0.1016 -0.2286,-0.4826 v -0.0254 z m -22.9616,0.1524 q 0.3048,0.0762 0.2286,0.2286 -0.0508,0.127 -0.2286,0.1524 -0.1524,0.0508 -0.1524,-0.127 z m 7.3914,0.0508 -0.0508,0.0762 q 0.2032,0.3048 0.4318,0.3048 0.0254,0 0.0508,-0.0508 -0.1524,-0.1778 -0.4318,-0.3302 z m -2.1844,0.1778 q 0,0.1524 0.2286,0.5334 0.254,0.3556 0.254,0.381 0.2286,0.5334 0.2286,1.0922 0,1.4478 -1.016,1.9304 -0.1016,0.0508 -0.1778,0.1524 -0.0508,0.1524 0.1016,0.1778 0.5334,0.0254 0.9906,-0.8636 0.4064,-0.7874 0.4064,-1.397 0,-1.0414 -0.6096,-1.651 -0.0762,-0.1524 -0.4064,-0.3556 z m 9.4996,0.2032 q -0.3048,0.762 -1.1176,1.397 -0.889,0.6604 -1.651,0.5334 -0.635,-0.1016 -1.2446,-0.9652 -0.1524,-0.2032 -0.1524,-0.381 -0.8128,0 -0.8128,1.6002 v 0.0254 l 0.8128,0.5334 q 0.0254,0.0762 0.381,0.5842 l 0.1524,0.1016 q 0.4826,-0.381 0.6096,-0.381 0.2794,-0.1016 0.6096,-0.1016 1.2192,0 2.1336,0.8128 l 0.2794,0.1778 q 0.0508,-0.0762 0.0508,-0.1778 0,-0.4826 -0.9144,-0.8128 l -0.4318,-0.0762 -0.127,-0.0762 0.1778,-0.2286 q 1.27,-0.8636 1.3462,-1.397 l -0.0508,-0.381 q -0.1524,0.1016 -0.3048,0.4064 -0.2286,0.635 -0.9906,1.016 -0.7366,0.3556 -1.4478,0.3556 -0.9144,0 -1.397,-0.4826 -0.2794,-0.2286 -0.2286,-0.3556 0,-0.1524 0.1524,-0.1524 0.0762,0 0.1524,0.0254 0.3556,0.3048 1.0922,0.6858 0.2032,0.0508 0.4064,0.0508 0.1778,-0.0508 1.016,-0.381 l 0.635,-0.4064 q 0.889,-0.8636 0.889,-1.4224 0,-0.1016 -0.0254,-0.127 z m -14.8082,0.3048 q 0.381,0 0.381,0.2286 0,0.1778 -0.2794,0.1778 -0.127,0 -0.1524,-0.127 -0.0508,-0.1524 0.0508,-0.2794 z m 23.0632,0.2032 q 0.127,0.0508 0.127,0.0762 -0.0254,0.0508 -0.1016,0.0762 z m -4.826,0.1778 q 0.0508,0.0762 -0.0762,0.0762 0.0762,-0.0254 0.0762,-0.0762 z m 4.3688,0.2032 q 0.1524,0.0508 0.127,0.1524 -0.0508,0.2032 -0.0508,0.1778 l -0.0254,-0.0254 q -0.0762,-0.0254 -0.127,-0.1524 -0.0508,-0.1524 0.0762,-0.1524 z m -22.2758,0.0254 q 0.2286,0.0762 0.2286,0.3048 0,0.2794 -0.3302,0.2032 -0.1524,-0.0254 -0.1524,-0.127 0,-0.2032 0.254,-0.381 z m 21.8186,0.127 q 0.1016,0.0254 0.1778,0.1524 0.0762,0.1778 -0.0508,0.2032 -0.1778,0.0508 -0.1778,-0.1016 -0.0254,-0.1524 0.0508,-0.254 z m -17.8562,0.0508 -0.0508,0.1016 q 0.6604,0.4572 0.6604,1.2446 0,0.0762 0.0254,0.1778 h 0.0254 q 0.1016,-0.127 0.1016,-0.4318 0.0254,-0.7366 -0.762,-1.0922 z m 17.018,0 q 0.4826,0.0762 0.2794,0.3048 -0.127,0.127 -0.254,0 -0.0508,-0.0762 -0.0508,-0.1778 0,-0.0508 0.0254,-0.127 z m -17.9578,0.1778 v 0.0254 q -0.4318,0.2286 -0.762,0.7112 -0.4064,0.5334 -0.3048,0.9398 l 0.0762,0.127 v -0.0254 h 0.0254 q 0.6096,-1.2446 1.1684,-1.7526 v -0.0254 z m 4.2672,0 v 0.4572 h 0.0508 q 0.127,-0.1524 0.127,-0.254 0,-0.1016 -0.1778,-0.2032 z m 10.3886,0.2032 v 0 q -0.1524,0.127 -0.0508,0.3048 0.1016,0.1778 0.2794,0.1778 v -0.0254 q -0.0508,-0.2794 -0.2286,-0.4572 z m 0.6096,0 0.1016,0.0762 v 0.0254 h -0.0508 l -0.0254,0.0254 q -0.0254,-0.0508 -0.0254,-0.127 z m 0.4826,0 q 0.4318,0.3302 0.9398,0.7112 0.254,0.127 0.6096,0.1524 0.5588,-0.0508 1.651,0.1016 0.254,0.1016 0.2286,0.254 0,0.127 -0.4318,0.2286 -0.4064,0.1016 -0.5588,0.0508 -0.3556,-0.0762 -0.6096,-0.1016 l -0.381,-0.0254 q -0.2794,-0.254 -0.9906,-0.6096 l -0.254,0.0508 q -0.1524,-0.1016 -0.2032,-0.381 -0.0508,-0.2794 -0.0762,-0.3048 v -0.0508 z m 0.4064,0 0.1524,0.1016 h -0.0254 z m -4.699,0.4826 z m -0.2286,0.2286 q 0,0.0508 -0.0254,0.1016 h 0.1016 z m 3.81,0 v 0.2286 q 0.0508,0.0254 0.1016,0.0254 l 0.0254,-0.2286 q -0.0508,0 -0.127,-0.0254 z m -3.9624,0.1524 q -0.2286,0.127 -0.2286,0.3302 0.0254,0.2032 0.3302,0.2032 0,-0.0254 0.0254,-0.0508 v -0.0254 q -0.0254,-0.0762 -0.0254,-0.4572 z m 5.0038,0.0254 0.4572,0.2286 q -0.0508,0.2286 -0.2794,0.1524 -0.508,-0.1016 -0.381,-0.127 v -0.0254 z m -9.6774,0.1778 v 0.0254 l -0.4064,0.381 q 0.4064,1.3716 0.5334,1.3716 0.7874,-0.635 0.7874,-0.8636 0,-0.5334 -0.9144,-0.9144 z m 8.4074,0.0254 q -0.2286,0.2794 -0.254,0.3048 0.0762,0.1016 0.1016,0.127 h 0.0254 l 0.2032,-0.4318 z m 4.9022,0 0.0508,0.0254 h 0.0508 q -0.0508,0.2032 -0.2032,0.5334 -0.1524,0.2032 -0.508,0.5842 l -0.0254,0.4064 q -0.127,0.127 -0.254,0.2794 -0.127,0.1778 0,0.8128 l -0.127,0.381 q -0.127,0.0254 -0.127,-0.127 -0.0508,-0.0762 0,-0.2032 0,-0.1016 -0.1778,-0.2286 -0.1778,-0.1524 -0.2032,-0.254 -0.0762,-0.1524 0.0508,-0.3048 l 0.127,-0.1524 q 0.1016,-0.3556 -0.9652,-0.8128 -0.3556,-0.127 -0.381,-0.0762 v 0 l 0.2032,0.381 q 0.508,0.8636 0.381,1.778 -0.1524,1.143 -0.9652,2.1336 -0.8128,0.9906 -1.8796,1.3462 l -1.2192,0.4318 q -0.7874,0.5334 -1.7018,0.889 l -2.0574,0.1778 q -1.5748,0 -2.3622,-1.0414 -0.1524,-0.2286 -0.1016,-0.4064 0.1016,-0.254 0.4572,-0.1778 0.2794,0.0762 0.3556,0.3556 l 0.0762,0.381 q 0.254,0.508 0.8382,0.508 0.0508,0 0.127,-0.0254 0.0508,-0.2032 0.381,-0.4572 0.127,-0.0254 0.889,0.3302 0.127,0.0254 0.2794,0.127 h 0.0254 q 0.7112,-0.0762 1.4732,-0.3556 l -0.1016,-0.1016 q -0.3556,0.0508 -0.9144,0.1016 l -0.254,-0.2286 h -0.381 q -0.4572,-0.3302 -0.6096,-0.3302 -0.1524,0 -0.1524,0.1778 l 0.5588,0.0762 -0.0254,0.0254 q -0.1778,0.1524 -0.5588,0.1524 -0.0508,-0.0254 -0.127,-0.1778 -0.1016,-0.0254 -0.8382,-0.254 -0.3048,-0.1016 -0.9144,-0.5588 -0.6858,-0.4826 -0.5334,-0.6858 l 0.0762,-0.0254 q 0.0508,-0.0508 0.635,0.4572 0.9144,0.8128 1.524,0.8128 l -0.0254,-0.0762 q -0.0762,-0.0762 -0.2286,-0.254 -1.2192,-0.6858 -1.905,-2.1336 -0.1778,-0.381 0.0762,-0.4572 0.1016,-0.0508 0.2286,0.0508 0.1524,0.127 0.2032,0.127 v -0.0254 q 0.0254,-0.127 0.0762,-0.6604 0.0508,-0.254 0.254,-0.254 0.254,0 0.5334,0.7112 0.4572,1.1938 0.6604,1.3462 0.889,0.635 1.778,0.6858 0.8382,-0.0254 1.8796,-0.0508 1.8034,-0.4572 2.8702,-1.5494 0.0762,-0.2794 0.3302,-0.762 0.1524,-0.254 0.1016,-0.6096 -0.0254,-0.381 -0.254,-0.508 -0.3556,-0.2286 -0.3556,-0.508 0,-0.127 0.1016,-0.1524 0.1016,-0.0508 0.1778,-0.0508 0.4826,0 0.6604,0.635 0.0254,0.6858 0.0762,1.4986 l -0.2032,-0.0254 -0.0762,0.5588 q -0.0508,0.2032 -0.4826,0.6096 -0.4064,0.4064 -0.5588,0.4064 l -0.1016,-0.0762 q 0.6096,-0.3048 0.6096,-0.4826 -0.0254,-0.0508 -0.0254,-0.0762 -0.381,0 -1.1938,0.8128 l -0.508,0.254 q 0,0.0762 -0.0508,0.1524 l 0.0254,0.1016 q -0.0508,0.0508 -0.127,0.0508 -0.0508,0 -0.1778,-0.0762 -0.1016,-0.0508 -0.1778,-0.0508 l -0.2032,0.1016 v 0.1778 q -0.1778,-0.0254 -0.4826,-0.0254 l -0.2032,0.2794 q -0.0254,0 -0.0762,0.0508 l -0.1778,-0.1778 q -0.1778,-0.1524 -0.4572,-0.1524 0.0508,0.5842 0.4064,0.5842 0.127,0 0.3556,-0.0508 0.254,-0.0508 0.381,-0.0508 l 1.8542,-0.762 q 0.3302,-0.3302 0.508,-0.3302 1.2446,-0.889 1.4478,-1.8542 l 0.0254,-1.1938 q 0.0254,-1.4224 -0.9144,-1.4224 -0.2032,0 -0.6096,0.2794 -0.4064,0.254 -0.4572,0.254 -0.4064,0 -0.4064,-0.381 0,-0.254 0.2032,-0.4572 0.2286,-0.2286 0.508,-0.2286 0.2286,0.0508 0.762,0.0762 0.1016,0.0508 0.4318,0 0.3302,-0.0762 0.4064,-0.0762 0.1524,-0.0254 0.7112,0.2794 0.5588,0.2794 0.6858,0.2794 0.1016,-0.0762 0.4318,-0.3556 z m -13.1064,0.4318 q 0.3048,0.0762 0.3048,0.381 0,0.2286 -0.2286,0.254 -0.2286,0.0508 -0.254,-0.2794 -0.0254,-0.3048 0.1778,-0.3048 z m 10.2362,0.254 z m -6.7564,0.1778 v 0 l -0.127,0.1524 q -0.1524,-0.0254 0.4064,-0.0254 -0.0762,-0.1016 -0.2794,-0.127 z m -10.9474,0.127 -0.0254,0.0762 q 0.0254,0.0762 0.0254,0.1016 h 0.0508 v -0.0254 l 0.0508,-0.0762 q -0.0508,0 -0.1016,-0.0762 z m 10.0076,0.0508 v 0.0254 q -0.9398,0.635 -0.9398,1.2192 0.1524,-0.2286 0.5842,-0.5842 l 1.016,-0.4572 0.0254,-0.0508 0.1016,-0.1524 z m 1.4478,0.127 v 0.1524 h 0.0762 v -0.0254 h 0.0254 q 0.0254,-0.0762 -0.1016,-0.127 z m 8.0772,0 v 0.0254 q -0.0762,0.0508 -0.1016,0.1524 -0.0254,0.0762 -0.0254,0.1016 0,0.0508 0.0508,0.0508 l 0.2794,-0.2286 v -0.0254 h -0.0254 z m -7.7978,0.2032 q 0,0.3048 0.5588,0.3048 z m -3.5814,0.2032 v 0.1016 q 0,0.0508 0.0254,0.0762 l 0.0508,0.0254 0.0508,-0.1016 -0.0254,-0.0254 v -0.0254 q -0.0508,0 -0.1016,-0.0508 z m -7.8486,0.1016 q -0.0254,0.127 0.0762,0.3302 0.127,0.2032 0.254,0.2032 0,-0.2032 -0.3302,-0.5334 z m -1.2192,0.1016 v 0.2286 q 0.0508,-0.1778 0.0762,-0.2286 z m 12.6492,0.3556 0.0762,0.127 v -0.0508 h 0.0254 v -0.0508 q -0.0508,-0.0254 -0.1016,-0.0254 z m -10.922,0.0762 v 0.0508 l -0.0508,0.0254 v 0.0508 q 0.3048,0.1778 0.3556,0.127 0.0254,0 0.0254,-0.0254 0,-0.1016 -0.3302,-0.2286 z m 7.0358,0 q -0.9398,1.0668 -1.143,1.0668 0.0762,0.1778 0.254,0.1778 0.254,0 0.6604,-0.4572 0.4064,-0.4572 0.4064,-0.7112 z m 8.4328,0 q -0.4064,0.3302 -0.9398,0.3302 v 0.0254 h 0.0254 l 0.8128,0.0254 q 0.1778,-0.0762 0.1778,-0.2032 0,-0.0762 -0.0762,-0.1778 z m -5.5118,0.0508 q -0.1778,0.1778 -0.1778,0.2794 0,0.2286 0.4318,0.2286 v -0.0254 q -0.0508,-0.2032 -0.254,-0.4826 z m 4.3942,0.3302 v 0.1524 h 0.1016 v -0.1016 q -0.0508,0 -0.1016,-0.0508 z m -13.0048,0.0508 v 0.0254 q -0.0508,0 -0.1016,0.0762 0.0254,0 0.0254,0.0254 0.1524,0.127 0.5588,0.0508 0.381,-0.0508 0.508,-0.0508 -0.1016,-0.127 -0.9906,-0.127 z m 11.2014,0 -0.0254,0.1016 h 0.0254 q 0.0254,0.0254 0.0762,0.0254 v -0.0254 z m 0.5842,0 q -0.0508,0.127 0.2794,0.127 -0.1016,-0.1016 -0.2794,-0.127 z m -1.6002,0.1016 v 0.0254 h 0.1524 v -0.0254 z m 2.4384,0.0762 v 0.0508 q -0.508,0.254 -2.54,0.254 h -0.762 l -0.0254,0.0254 v 0.0508 q 0.0508,0.0508 0.3302,0.127 l 0.4318,0.127 q 0.5334,0.1016 1.3716,0 0.889,-0.1016 1.143,-0.381 l 0.1524,-0.0762 z m 1.7018,0 v 0.0508 q -0.0762,0.0508 -0.0762,0.1016 0,0.0508 0.0254,0.0762 0.0254,0.0254 0.1016,0.0762 0.127,0 0.127,-0.127 0,-0.1016 -0.1778,-0.1778 z m -0.9906,0.127 q -0.9652,0.635 -1.2446,0.635 0.1016,0.2286 0.7874,0.2286 0.2286,-0.4064 0.635,-0.4064 0.381,0 0.381,0.3556 0,0.0762 -0.1524,0.4064 v 0.0254 h 0.1016 q 0.1524,-0.2032 0.1524,-0.4826 0,-0.7112 -0.6604,-0.762 z m -4.8006,0.1778 q -0.254,0.1778 -0.254,0.3302 0,0.0762 0.0762,0.127 0.0508,0.0508 0.1778,-0.127 0.0762,-0.0508 0.127,-0.0508 0.0508,0 0.1524,0.0508 l 0.8636,0.5588 q 0.2286,0.0762 1.1684,0.0508 0.9906,-0.0254 1.016,-0.1778 0,-0.1016 -0.127,-0.127 -0.127,0 -0.4318,0.0508 -0.3048,0.0762 -0.4572,0.0762 -0.8636,0 -1.651,-0.381 -0.1778,-0.1778 -0.6604,-0.381 z m -0.635,0.1524 q -0.0508,0.0508 -0.0508,0.1778 0,0.254 0.2286,0.6858 0.2286,0.4318 0.4572,0.4318 0.127,0 0.2032,-0.127 -0.2032,-0.1524 -0.508,-0.4318 l -0.1778,-0.5842 q -0.0508,-0.1016 -0.1524,-0.1524 z m 0.7874,0.4318 v 0.0508 q -0.0254,0.0762 -0.0254,0.1524 0,0.127 0.1524,0.127 0.0254,-0.2286 -0.127,-0.3302 z m 4.6736,0 v 0.0508 q -0.3048,0.3048 -0.4064,0.3048 0.0508,0.127 0.3048,0.0762 0.2794,-0.0762 0.3302,-0.2032 0.0762,-0.1524 -0.2286,-0.2286 z m -4.2926,0.3556 v 0.0254 q -0.1016,0.127 0,0.4318 0.1016,0.254 0.254,0.254 0.1778,0 0.1778,-0.127 0,-0.3556 -0.4318,-0.5842 z m 3.2258,0 q -0.0508,0.0254 -0.0762,0.1016 0.1016,0 0.1016,-0.0254 0,-0.0508 -0.0254,-0.0762 z m -5.3086,0.2286 0.1016,0.762 q 0.127,0.254 0.5334,0.5588 0.0762,0.0762 0.2794,-0.127 l 0.2032,0.1016 v 0.0254 q -0.1524,0.1778 -0.0762,0.3302 0.0254,0.1778 0.2794,0.1778 0.0762,-0.0254 0.1778,-0.2032 l 0.1524,-0.1778 q -0.0762,-0.127 -0.8128,-0.7874 -0.7112,-0.635 -0.8382,-0.6604 z m 2.6924,0.0508 v 0.1778 l 0.0762,-0.1016 z m 2.1082,0.0508 v 0.0254 q -0.0762,0.0762 -0.0762,0.1524 0,0.0762 0.127,0.1016 0.2286,0.0254 0.3556,-0.127 l 0.0508,-0.0254 q -0.0508,-0.0508 -0.4572,-0.127 z m 1.0414,0 -0.2032,0.2032 q 0,0.0508 0.0508,0.0762 0.127,0.1016 0.254,0 0.1524,-0.127 0.2032,-0.127 -0.0762,-0.127 -0.3048,-0.1524 z m -2.4384,0.0254 q -0.0508,0.0508 -0.0508,0.127 0,0.3048 0.4572,0.3048 0.2794,0 0.381,-0.1778 l -0.0254,-0.254 q -0.0508,0 -0.0762,0.0254 -0.127,0.1016 -0.2794,0.1016 -0.2032,0 -0.4064,-0.127 z m -5.0546,0.1778 q 0.4318,0.0762 0.4318,0.4318 0,0.1778 -0.254,0.254 -0.2286,0.0762 -0.3048,-0.2032 -0.0762,-0.2794 0.127,-0.4826 z m 4.5974,0.127 q -0.127,0.1016 -0.127,0.2286 0,0.1524 0.1524,0.1524 0.254,0 0.254,-0.1524 0,-0.1524 -0.2794,-0.2286 z m 1.3716,0.1778 v 0.0254 h -0.0254 l -0.0762,0.0508 0.0254,0.0508 h 0.3556 q -0.1016,-0.1016 -0.2794,-0.127 z m -2.3876,0.9144 v 0.0254 q -0.127,0.1524 -0.0508,0.3556 0.0254,0.1778 0.2032,0.2286 h 0.127 q -0.0254,-0.3556 -0.0254,-0.381 -0.0508,-0.1778 -0.254,-0.2286 z m 0.6604,0.1778 v 0.0508 l -0.3302,0.4318 q 0.3048,0.2794 0.9652,0.2794 0.2032,0 0.4318,-0.0762 0.0254,-0.1524 0.0254,-0.2286 0,-0.2794 -0.3556,-0.2794 -0.0762,0 -0.2032,0.1524 -0.1016,0.1778 -0.1778,0.127 -0.1016,-0.1524 -0.3556,-0.4572 z"
       id="path10762"
       style="font-size:96px;line-height:1.25;font-family:Monarchia;-inkscape-font-specification:Monarchia;white-space:pre;stroke-width:0.264583" />
    <path
       d="m 45.001153,129.35472 q -0.3302,0.1778 -0.4064,0.381 -0.0762,-0.0254 -0.1524,0.1016 -0.0508,0.1016 -0.1016,0.0762 -0.127,0.2794 -0.2032,0.2794 0,0.1778 -0.3048,0.4572 v 0.1524 q -0.127,0 -0.1524,0.0254 v 0.1016 h -0.254 q -0.1524,0 -0.127,-0.1778 -0.0254,-0.0508 -0.127,-0.0508 0,-0.0508 -0.3302,-0.2286 -0.3048,-0.1778 -0.3302,-0.2032 -0.127,-0.0762 -0.3048,-0.254 -0.0762,-0.127 -0.2032,-0.1016 l -0.127,-0.1778 h -0.1016 v -0.2286 q 0.0254,-0.127 0.1778,-0.1016 0.0508,-0.0254 0.0508,-0.127 0.1016,0.0254 0.127,-0.0762 v -0.1524 q 0,-0.0762 0.127,-0.0508 0.0254,-0.0508 0.0508,-0.2032 0.0254,0 0.0762,-0.0508 v -0.0762 q 0.0508,-0.0254 0.4064,-0.3048 v -0.1524 l 0.127,-0.2286 q 0.1016,-0.2286 0.254,-0.1524 0.127,0 0.3556,0.2032 0.2286,0.1778 0.3048,0.1778 0,0.127 0.127,0.1778 h 0.127 q 0,0.0508 0.0508,0.1016 h 0.0762 q -0.0254,0.1016 0.127,0.127 0.1778,0.0254 0.1778,0.1016 l -0.0508,0.1016 q 0.0254,0.0254 0.2286,0.0508 0,0.127 0.0508,0.127 h 0.127 q -0.0254,0.0762 0.0254,0.1778 h 0.1016 z m 0.0762,13.5636 q -0.0254,0 -0.0762,0.0508 v 0.0762 q -0.0762,0 -0.2032,0.127 -0.1016,0.127 -0.2032,0.1016 l -0.1524,0.1016 q -0.1524,0.1016 -0.1524,0.254 -0.2286,-0.0254 -0.254,0.127 -0.127,0.0508 -0.2032,0.254 l -0.1778,0.127 -0.127,0.0762 q -0.127,0.0762 -0.1016,0.2032 l -0.1778,0.127 v 0.0762 h -0.3302 q 0,-0.1016 -0.0508,-0.127 h -0.0762 q 0.0254,-0.127 -0.127,-0.381 l -0.1778,-0.2286 q -0.127,0 -0.1778,-0.127 -0.0762,-0.0254 -0.1778,-0.1778 0,-0.0254 -0.0508,-0.0762 h -0.0762 q -0.1524,-0.1524 -0.3048,-0.5842 h -0.1778 q 0.0508,-0.2032 -0.1778,-0.254 l 0.0508,-0.4826 q 0.0762,0 0.127,-0.0762 -0.0254,-0.1016 0.127,-0.1778 0.0762,0 0.0762,-0.0762 0.0254,-0.0762 0.0508,-0.1016 l -0.0508,-6.0452 0.1524,-0.0508 q 0.0762,-0.0254 0.0254,-0.127 h 0.1778 q 0,0.127 0.0508,0.127 0.0508,-0.0762 0.0508,-0.1778 0,-0.127 -0.0508,-0.2032 -0.0508,0.0254 -0.0508,0.127 h -0.1778 q 0,-0.1016 -0.127,-0.1778 -0.1016,-0.0762 -0.127,-0.127 h -0.127 q 0.0254,-0.0508 0.0254,-0.1016 0,-0.0508 -0.127,-0.1016 -0.1016,-0.0508 -0.0762,-0.1524 -0.0254,-0.0254 -0.127,-0.0254 0.1524,-0.0762 0.381,-0.3556 0.0508,-0.0254 0.1778,-0.127 0,-0.0762 0.127,-0.1016 0.127,-0.0508 0.1016,-0.1524 l 0.1778,-0.1524 v -0.0762 q 0.1016,0 0.127,-0.0508 v -0.127 q 0.254,0.0254 0.254,-0.127 -0.0254,-0.0762 0.1016,-0.1016 0.1524,-0.0508 0.127,-0.1524 0.0508,-0.0254 0.127,-0.1016 h 0.381 q -0.0508,0.2032 0.0508,0.2286 h 0.254 q 0.1524,0 0.127,0.1778 h 0.1016 q 0,0.0508 0.0762,0.0762 h 0.127 q 0,0.0508 0.1016,0.1778 0.3302,-0.0254 0.3302,0.2286 v 0.0762 l 0.6096,0.0508 v 0.381 q -0.0254,0 -0.0762,0.0508 v 0.0762 l -0.1778,0.127 v 0.3556 q -0.127,-0.0508 -0.127,0.1778 v 0.127 h -0.0508 l -0.0508,0.6096 h -0.0762 l -0.0508,5.6134 q 0,0.0254 0.0508,0.0762 h 0.0762 q -0.0254,0.1016 0.0508,0.2286 0.1016,0.1016 0.1016,0.1778 h 0.0762 q -0.0254,0.2032 0.127,0.4826 h 0.127 z m -0.635,-13.5128 v -0.4064 q -0.1778,0.0508 -0.3556,-0.0762 -0.0762,-0.1524 -0.1778,-0.127 -0.1778,-0.1524 -0.4826,-0.5334 h -0.3556 v 0.3556 h 0.1524 q 0.0762,0.0254 0.127,0.127 h 0.127 q 0.0508,0.0254 0.0762,0.0762 h 0.1016 q -0.0254,0.1016 0.127,0.1778 0.1778,0.0508 0.1778,0.127 h 0.0762 q 0.0254,0.0254 0.0508,0.2286 -0.0254,0.0508 -0.127,0.0762 v 0.1016 q -0.0508,0.0508 -0.1016,0.0508 0.0762,0.2032 -0.1778,0.254 0,0.0508 -0.2286,0.2794 -0.0254,0.0254 -0.2794,0.0762 v 0.127 q 0.1016,-0.0254 0.127,0.127 0.0508,0.127 0.1016,0.127 0.0508,-0.0254 0.127,-0.0508 0,-0.1016 0.1016,-0.1524 0.1016,-0.0762 0.1016,-0.1778 0.1016,0 0.2286,-0.2794 0.0254,-0.1016 0.254,-0.1778 v -0.127 q 0.0254,-0.0508 0.0762,-0.0762 v -0.1016 q 0.0508,-0.0254 0.1524,-0.0254 z m -1.7018,-0.2794 q 0,-0.1016 -0.0508,-0.254 -0.0254,0.0762 -0.127,0.127 v 0.1778 q 0.0254,0.0762 0.0762,0.0254 0.0508,-0.0762 0.1016,-0.0762 z m 0.1778,1.016 q 0.0508,-0.1778 -0.4064,-0.4826 h -0.127 l -0.0508,-0.2286 q 0.0508,-0.0254 0.1524,-0.0254 v -0.127 q -0.0508,0.127 -0.3048,0.1524 v 0.1778 h 0.127 q 0.0762,0 0.0762,0.1778 0.3048,0.0762 0.4064,0.3556 z m -0.1778,3.683 v -0.127 h -0.0508 z m -0.6096,1.1938 q -0.0762,-0.3556 -0.2286,-0.4826 -0.0254,0.0762 -0.127,0.127 v 0.1778 q 0.0254,0.0508 0.1524,0.0254 h 0.1524 q 0.0762,0.0254 0.0508,0.1524 z m 2.5654,7.6962 v -0.2286 h -0.2286 q 0,-0.2032 -0.254,-0.5588 v -6.731 q 0.127,-0.2032 0.2286,-0.1778 v -0.2794 l 0.1524,-0.127 v -0.0762 q 0.0762,-0.0508 0.1016,-0.0508 v -0.0762 q -0.0254,0 -0.0762,-0.0762 -0.0508,-0.1016 -0.127,-0.0762 -0.0508,0 -0.0508,-0.127 h -0.1524 q 0,-0.0254 -0.1524,-0.0254 -0.127,-0.0254 -0.1016,-0.127 h -0.0762 q -0.0508,-0.0508 -0.0508,-0.1016 -0.0762,0.0254 -0.2286,-0.0508 0.0508,-0.1016 -0.0508,-0.127 h -0.1524 q -0.0762,0 -0.0508,-0.127 h -0.127 l -0.0508,-0.2032 h -0.1778 q 0.0508,0.0762 -0.0254,0.1016 l -0.1016,0.0508 h 0.3048 q 0.127,0.1524 0.3302,0.508 0.0254,0.0762 0.1016,0.0762 0.127,-0.0254 0.1524,0 0.0508,0.0254 0.0254,0.127 h 0.127 q 0.0762,0.0254 0.3556,0.127 0.0508,0.1016 -0.0762,0.2286 -0.1016,-0.0254 -0.1778,0.1524 -0.0508,0.1778 -0.127,0.1778 0.0254,0.1778 -0.1016,0.3556 l -0.0254,2.6162 h -0.1016 v 0.0762 h 0.1016 l 0.0254,0.1778 q 0,0.0508 -0.127,0.0508 v 0.4318 h 0.1016 q -0.0254,1.1684 0.127,3.5306 h 0.0762 q -0.0254,0.1016 0.1524,0.1524 0.1778,0.0508 0.1524,0.1524 h 0.1016 q 0.0508,0.0508 0.0254,0.0762 0,0.0508 -0.127,0.0508 0.0254,0.1016 -0.1016,0.1524 -0.127,0.0254 -0.1016,0.1016 -0.1524,0.1524 -0.5842,0.3556 l -0.127,0.127 q -0.1524,0.1524 -0.127,0.3048 -0.0508,0 -0.1778,0.0762 -0.1016,0.0762 -0.2032,0.0508 -0.0254,0.127 0.0254,0.3556 0.2032,0 0.4572,-0.3302 0.0508,-0.0508 0.4318,-0.1524 -0.0254,-0.127 0.1016,-0.1778 0.127,-0.0508 0.1016,-0.1016 l 0.1778,-0.127 q -0.0254,-0.1016 0.1016,-0.1524 0.127,-0.0508 0.127,-0.1016 l 0.1524,-0.127 v -0.0762 q 0.0762,-0.0762 0.1016,-0.0508 z m -2.4384,-4.191 v -0.127 h -0.0762 v 0.127 z m 0,2.8448 v -0.3556 h -0.127 l 0.0508,0.3556 z m -0.3048,0.7874 v -0.1778 h -0.0508 z m 0.7874,1.5494 q 0.0254,-0.1016 -0.0508,-0.2032 -0.0508,-0.1016 -0.0508,-0.1524 -0.1016,0.0508 -0.1524,-0.0762 -0.0254,-0.1524 -0.0762,-0.127 -0.0254,0 -0.0762,-0.1778 h -0.127 q -0.0508,-0.0254 -0.0762,-0.0762 h -0.0508 v 0.2032 h 0.1778 l 0.1778,0.2286 q 0.1524,0.254 0.127,0.381 z"
       id="path10764"
       style="font-size:96px;line-height:1.25;font-family:Monarchia;-inkscape-font-specification:Monarchia;white-space:pre;stroke-width:0.264583" />
    <path
       d="m 55.669123,134.51092 q -0.2032,0.127 -0.5334,0.508 v 0.3302 q -0.0762,-0.0254 -0.1016,0.0762 0,0.1016 -0.0762,0.0508 -0.1016,5.7404 -0.0508,6.5786 0.1524,0.0254 0.3048,0.2032 0.3556,0.5334 0.3302,0.6604 -0.4572,0.381 -1.3208,1.0922 v 0.1524 q -0.0762,-0.0254 -0.1778,0.0254 l -0.1016,0.1016 q -0.1016,0.1016 -0.0508,0.2286 -0.127,-0.0762 -0.2794,0.1524 -0.1524,0.2286 -0.1778,0.254 -0.0254,0 -0.1016,0 -0.1778,0 -0.4064,-0.2794 -0.3048,-0.3048 -0.4064,-0.3556 l -1.2192,-1.2446 q -0.127,-0.3302 -0.1016,-0.4826 0.2032,-0.0762 0.3556,-0.381 0.1778,-0.3302 0.254,-0.4064 -0.0254,-0.8382 -0.0254,-2.1082 0,-1.2446 0.0254,-2.921 0.1016,0 0.0762,-0.127 v -0.2286 q -0.0762,0 -0.0762,-0.1016 v -0.1778 q -0.0254,-0.0762 -0.1524,-0.0508 0,-0.3302 -0.0762,-0.4064 h -0.1016 v -0.127 l -0.635,-0.0508 q 0,-0.127 -0.0508,-0.127 -0.0762,-0.0254 -0.1778,0.0254 -0.0762,0.3302 -0.1016,0.2794 -0.1016,-0.0508 -0.1778,0.127 -0.0762,0.1778 -0.1778,0.1524 l -0.0508,0.5588 h -0.1016 l -0.0254,5.6134 q 0.0254,0.0254 0.127,0.0254 0.127,0.1524 0.3302,0.5588 0.4064,0.1524 0.3556,0.3302 -1.4224,1.0668 -2.1082,1.905 -0.0762,0.0254 -0.2032,0.0254 -0.127,0 -0.2794,-0.0254 0.0508,-0.127 -0.0762,-0.254 l -0.127,-0.1016 q -0.381,-0.3048 -1.1684,-1.2446 -0.1524,0 -0.2794,-0.127 l -0.1778,-0.1778 q -0.1016,-0.0762 -0.0508,-0.2286 0.2032,-0.1524 0.5334,-0.6096 -0.0508,-0.1016 -0.0508,-0.1778 l 0.2032,-0.2794 q 0.1778,-0.254 0.127,-0.4064 l -0.0508,-5.1054 q 0,-0.0508 -0.127,-0.0508 v -0.381 q 0.0254,-0.254 -0.127,-0.3048 -0.0762,-0.1524 -0.508,-0.4064 -0.0254,-0.0762 -0.0254,-0.127 0,-0.127 0.254,-0.381 0.1778,-0.0508 0.3302,-0.3302 0.1778,-0.3048 0.254,-0.3556 v -0.127 q 0.4572,-0.3302 1.0922,-1.0922 0.2286,-0.1778 0.3302,-0.1524 0.1524,0.2794 0.635,0.6858 0.4826,0.4064 0.635,0.6858 h 0.381 q 0.2286,-0.0254 0.2286,0.1778 0.1524,0.0254 0.4064,-0.0254 v -0.1016 q 0.3048,0 0.635,-0.1778 0.1524,-0.1524 0.5842,-0.3302 v -0.0762 q 0.1016,-0.0762 0.381,-0.1524 0,-0.1016 0.1778,-0.1778 0.2032,-0.1016 0.2286,-0.1778 0.3302,0.1778 0.635,0.508 h 0.127 v 0.127 q 0.5842,0.0508 0.5842,0.2794 0,0.127 0.0762,0.127 h 0.1524 q 0.1016,0.0254 0.0762,0.1524 l 0.4064,0.0254 q 0.0508,0.2032 0.762,0.2794 z m -1.4478,-0.2286 v -0.127 h -0.1524 q 0.0254,-0.0762 -0.1016,-0.1016 -0.1016,-0.0508 -0.0762,-0.127 h -0.1778 q -0.0508,-0.1016 -0.2286,-0.2794 h -0.2286 l 0.0508,0.2286 q 0.1016,0 0.1778,0.127 0.0762,0.127 0.1524,0.127 0.0762,0 0.0762,0.1016 z m -1.2446,-0.9398 h -0.254 q -0.2032,0.1016 -0.508,0.4826 -0.1778,-0.0508 -0.4826,0.1778 -0.3048,0.2032 -0.3048,0.2032 -0.1016,0 -0.2286,-0.0508 0.0508,0.1016 -0.0508,0.1524 -0.1016,0.0508 -0.0762,0.127 h 0.2794 q 0.4826,-0.3302 1.2192,-0.6096 v -0.127 q 0.0254,-0.1016 0.1524,-0.1016 h 0.2286 q 0.0508,-0.2286 0.0254,-0.254 z m -2.0574,1.1176 h -0.2032 q -0.127,0 -0.1016,-0.127 h -0.2286 l -0.1016,-0.0508 q -0.127,-0.0254 -0.0762,-0.127 -0.2032,0.0254 -0.508,-0.0508 0,-0.0254 -0.1016,-0.0762 -0.0762,-0.0508 -0.0254,-0.1016 h -0.1524 q -0.4318,-0.2032 -0.8128,-0.8128 l -0.0508,-0.2032 q -0.2032,-0.0762 -0.2286,0.2794 -0.0762,0.127 0.127,0.254 l 0.1778,0.1524 q 0,0.0508 -0.0254,0.1016 h 0.127 q 0,0.0762 0.0762,0.1524 0.1016,0.0762 0.1016,0.1778 0.2286,0.1778 0.6604,0.3048 0.0254,0.0508 0.0254,0.1778 0.4826,0.0254 1.3208,-0.0508 z m 1.4732,4.064 v -0.5334 q -0.1016,-0.0254 -0.127,-0.1524 0.0508,-0.0254 0.127,-0.0254 v -0.635 q -0.0508,0.0254 -0.1778,0.0254 v 1.3208 z m 2.6416,4.3942 v -0.3556 h -0.127 q 0.0254,-0.1524 -0.1524,-0.3048 l -0.254,-0.1524 v -6.731 q 0.1778,-0.254 0.5334,-0.6858 -0.0762,-0.0254 -0.127,-0.127 -0.127,-0.0254 -0.4318,0.2794 -0.2794,0.2794 -0.3556,0.3048 l -0.0762,0.9652 h -0.1016 v 0.2286 h 0.1016 q 0.0508,0.254 0.0508,0.5588 0,0.2794 -0.0508,0.5334 h -0.1016 v 0.2794 h 0.1016 q 0.0508,0.6604 0.0508,1.3716 0,0.7112 -0.0508,1.3716 v 0 q 0.0508,0.2032 0.0508,0.4318 0,0.2286 -0.0508,0.4318 h -0.1016 v 0.3302 q 0.2286,0.0508 0.2286,0.5842 0.0254,0.0508 0.2794,0.2286 0.254,0.1778 0.2286,0.2794 0.0508,0.1524 -0.1016,0.1778 l -0.3048,0.0508 q -0.5842,0.3302 -1.016,0.9652 -0.1016,0 -0.2794,-0.0508 -0.2286,-0.1778 -0.5842,-0.6858 h -0.127 q -0.3302,-0.3302 -0.6604,-0.508 v 0.1778 q 0.254,0.254 0.7874,0.6858 0.0254,0.0254 0.0508,0.1778 0.0762,0 0.1778,0.0508 -0.0254,0.2032 0.2286,0.4318 0.254,0.2286 0.2794,0.3048 h 0.127 q 0.635,-0.762 1.0414,-1.143 0.1016,-0.0762 0.5588,-0.3302 v -0.0762 q 0.0508,-0.0254 0.1778,-0.0508 z m -7.112,-9.1694 q -0.1524,-0.0254 -0.5334,0.3556 -0.1016,0.1016 -0.1016,0.3302 0,-0.0508 0.1016,-0.127 0.127,-0.1016 0.1524,-0.1524 0.0254,-0.0762 0.1016,-0.0762 0.0508,0 0.1016,0.0254 -0.0254,-0.0508 -0.0254,-0.1016 0,-0.0508 0.1016,-0.1016 0.127,-0.0508 0.1016,-0.1524 z m -0.2794,2.1336 q 0.0508,-0.1016 -0.0508,-0.1016 -0.1016,0 -0.0762,-0.0762 0.0254,-0.0508 0.127,-0.0508 -0.0254,-0.2032 -0.2794,-0.4318 -0.2286,-0.2286 -0.2794,-0.3302 h -0.2286 q -0.0508,0.1016 0.0508,0.1778 0.1016,0.0762 0.0508,0.1778 0.1524,0.2286 0.5588,0.6858 0.0254,-0.0508 0.127,-0.0508 z m 0,0.4572 v -0.2286 h -0.1016 v 0.2286 z m 4.7498,-0.2794 v -0.3556 q -0.127,0 -0.1524,-0.2286 -0.0254,-0.254 -0.0762,-0.2794 -0.0762,-0.127 -0.3556,-0.3048 0.0254,0.0762 -0.1524,0.0762 -0.0508,-0.0508 -0.0508,-0.0762 h -0.9398 l -0.0508,0.0762 h -0.8636 l -0.254,0.3556 q -0.1778,0.254 -0.3048,0.254 0,0.0508 0.1016,0.0762 0.0508,0.7366 0.0508,1.524 0,0.762 -0.0508,1.4986 h -0.1016 v 2.9718 q 0.127,0.0254 0.1524,0.3302 0.0254,0.3048 0.0762,0.3556 0.1016,-0.0508 0.127,0.0762 0.0254,0.1016 0.1016,0.1016 l 0.1524,0.1524 q 0.0762,0.0762 0.0254,0.2032 -0.3302,0.1778 -1.0414,0.635 v 0.1524 q -0.1016,0.1778 -0.4572,0.3556 -0.2032,-0.0508 -0.4318,-0.381 -0.2286,-0.3556 -0.381,-0.4318 -0.127,0.0254 -0.4064,-0.1524 l -0.254,-0.1524 q -0.0508,0 -0.127,0.0254 v 0.127 h 0.127 q 0.8382,0.5588 1.7018,1.4732 0,-0.127 0.0508,-0.127 0.0254,-0.1524 0.6858,-0.508 0.2794,-0.3556 0.9144,-0.9652 0,-0.3048 -0.2032,-0.2286 l -0.0762,-0.4064 q -0.2286,-0.0508 -0.2286,-0.1016 l 0.0508,-6.2992 q 0.1016,-0.1778 0.1778,-0.127 v -0.1778 q 0,-0.0762 0.1016,-0.0762 0.127,-0.0254 0.0762,-0.127 0.127,0 0.3302,-0.127 0.2286,-0.1524 0.3048,-0.1778 0.254,-0.0254 0.8382,0.0508 0.2286,0.254 0.635,0.9398 z m -0.3556,6.2738 q -0.0508,-0.0254 -0.0508,-0.127 0,-0.1016 -0.1016,-0.0762 v 0.3302 q 0.0762,0.0254 0.0762,-0.0508 0.0254,-0.0762 0.0762,-0.0762 z m -4.572,-0.2286 q 0.0508,-0.127 -0.1778,-0.2286 l 0.0254,0.3556 q 0.0508,-0.1016 0.1524,-0.127 z"
       id="path10766"
       style="font-size:96px;line-height:1.25;font-family:Monarchia;-inkscape-font-specification:Monarchia;white-space:pre;stroke-width:0.264583" />
  </g>
</svg>
